<?xml version="1.0" encoding="utf-8"?>
<!-- Generator: Adobe Illustrator 16.0.0, SVG Export Plug-In . SVG Version: 6.00 Build 0)  -->
<!DOCTYPE svg PUBLIC "-//W3C//DTD SVG 1.1//EN" "http://www.w3.org/Graphics/SVG/1.1/DTD/svg11.dtd">
<svg version="1.1" id="Layer_1" xmlns="http://www.w3.org/2000/svg" xmlns:xlink="http://www.w3.org/1999/xlink" x="0px" y="0px"
	 width="443.962px" height="512px" viewBox="1.569 0 443.962 512" enable-background="new 1.569 0 443.962 512"
	 xml:space="preserve">
<g>
	<path d="M223.435,358.132l0.042-0.059H116.389l-5.072-0.025c-41.551-0.208-75.361-34.177-75.361-75.729
		c0-41.769,33.977-75.753,75.745-75.753c1.285,0,2.553,0.1,3.821,0.183l1.268,0.092l11.228,0.726l5.098-10.027
		c19.003-37.355,56.75-60.563,98.511-60.563c50.535,0,94.939,35.012,107.119,83.712h17.643
		c-12.338-57.593-63.488-100.796-124.762-100.796c-15.425,0-30.207,2.753-43.888,7.775c-8.009-43.763-46.131-76.964-92.204-76.964
		c-3.529,0-6.999,0.234-10.437,0.609c6.357,9.501,10.069,20.913,10.069,33.192c0,33.018-26.77,59.796-59.796,59.796
		c-12.288,0-23.691-3.712-33.193-10.069c-0.375,3.429-0.609,6.907-0.609,10.436c0,31.816,15.875,59.871,40.067,76.863
		c-14.14,16.292-22.766,37.516-22.766,60.789c0,51.113,41.31,92.563,92.363,92.812v0.025h112.2v0.059
		c18.834,0,34.168,15.325,34.168,34.17s-15.334,34.168-34.168,34.168v17.086c28.312,0,51.254-22.941,51.254-51.254
		C274.688,381.082,251.747,358.132,223.435,358.132z M20.164,159.875c4.972,1.001,10.061,1.511,15.208,1.511
		c42.395,0,76.88-34.486,76.88-76.881c0-5.146-0.508-10.235-1.509-15.208c31.983,6.449,56.776,32.818,60.972,65.552
		c-23.082,12.338-41.936,31.575-53.823,54.94c-2.06-0.133-4.104-0.309-6.189-0.309c-21.656,0-41.526,7.475-57.318,19.904
		C37.057,198.348,24.36,180.68,20.164,159.875z"/>
	<path d="M257.604,323.964h-85.321v17.084h85.321c28.313,0,51.255-22.948,51.255-51.254c0-28.313-22.94-51.253-51.255-51.253v17.083
		c18.838,0,34.168,15.325,34.168,34.17S276.439,323.964,257.604,323.964z"/>
	<path d="M326.142,323.964h-0.199v17.084h46.981v-0.435c21.557-2.17,38.44-20.146,38.44-42.277c0-23.591-19.12-42.712-42.712-42.712
		v17.086c14.132,0,25.627,11.494,25.627,25.626c0,14.131-11.495,25.628-25.627,25.628c-0.366,0-0.708-0.093-1.077-0.108h-41.534
		C326.066,323.896,326.116,323.93,326.142,323.964z"/>
	<path d="M402.822,358.132H291.771v17.084h77.072c-0.033,0.034-0.066,0.068-0.093,0.109h32.994c0.365-0.019,0.708-0.109,1.076-0.109
		c14.13,0,25.626,11.497,25.626,25.628c0,14.132-11.496,25.626-25.626,25.626v17.084c23.59,0,42.71-19.119,42.71-42.71
		C445.532,377.252,426.412,358.132,402.822,358.132z"/>
	<rect x="120.928" y="323.964" width="34.169" height="17.084"/>
</g>
</svg>
