<?xml version="1.0" encoding="utf-8"?>
<!-- Generator: Adobe Illustrator 16.0.0, SVG Export Plug-In . SVG Version: 6.00 Build 0)  -->
<!DOCTYPE svg PUBLIC "-//W3C//DTD SVG 1.1//EN" "http://www.w3.org/Graphics/SVG/1.1/DTD/svg11.dtd">
<svg version="1.1" id="Layer_1" xmlns="http://www.w3.org/2000/svg" xmlns:xlink="http://www.w3.org/1999/xlink" x="0px" y="0px"
	 width="495.45px" height="512px" viewBox="-24.174 0 495.45 512" enable-background="new -24.174 0 495.45 512"
	 xml:space="preserve">
<g>
	<path d="M249.18,336.802H82.83l-4.939-0.024c-46.857-0.233-84.98-38.551-84.98-85.406c0-47.099,38.314-85.422,85.414-85.422
		c1.493,0,2.961,0.116,4.429,0.216l1.276,0.083l11.245,0.751l5.105-10.043c21.298-41.852,63.583-67.846,110.365-67.846
		c58.002,0,108.914,41.126,121.051,97.793l2.721,12.663l12.931,0.81c15.564,0.968,29.58,7.216,40.542,16.834h23.342
		c-14.583-19.32-37.14-32.292-62.824-33.886C334.875,119.725,278.4,72.025,210.746,72.025c-54.865,0-102.307,31.416-125.589,77.181
		c-2.269-0.15-4.53-0.342-6.832-0.342c-56.609,0-102.499,45.89-102.499,102.507c0,56.443,45.615,102.206,101.982,102.49v0.025
		H249.18c18.834,0,34.168,15.323,34.168,34.168s-15.334,34.17-34.168,34.17v17.084c28.312,0,51.254-22.94,51.254-51.255
		C300.434,359.75,277.49,336.802,249.18,336.802z"/>
	<path d="M283.348,302.633H146.771v17.083h136.575c28.313,0,51.253-22.946,51.253-51.251c0-28.314-22.938-51.255-51.253-51.255
		v17.084c18.836,0,34.17,15.324,34.17,34.171C317.517,287.311,302.184,302.633,283.348,302.633z"/>
	<path d="M394.396,251.379c14.132,0,25.627,11.497,25.627,25.628c0,14.132-11.495,25.626-25.627,25.626
		c-0.366,0-0.71-0.092-1.075-0.109h-41.535c0.024,0.043,0.074,0.068,0.099,0.109h-0.199v17.083h46.981v-0.432
		c21.557-2.171,38.441-20.147,38.441-42.277c0-23.593-19.12-42.713-42.713-42.713L394.396,251.379L394.396,251.379z"/>
	<path d="M428.565,336.802H317.517v17.085h77.072c-0.034,0.041-0.066,0.066-0.093,0.108h32.992c0.368-0.017,0.709-0.108,1.077-0.108
		c14.13,0,25.626,11.494,25.626,25.627c0,14.131-11.496,25.626-25.626,25.626v17.085c23.591,0,42.711-19.122,42.711-42.711
		C471.276,355.922,452.156,336.802,428.565,336.802z"/>
	<rect x="95.418" y="302.633" width="34.168" height="17.083"/>
</g>
</svg>
