<?xml version="1.0" encoding="utf-8"?>
<!-- Generator: Adobe Illustrator 16.0.0, SVG Export Plug-In . SVG Version: 6.00 Build 0)  -->
<!DOCTYPE svg PUBLIC "-//W3C//DTD SVG 1.1//EN" "http://www.w3.org/Graphics/SVG/1.1/DTD/svg11.dtd">
<svg version="1.1" id="Layer_1" xmlns="http://www.w3.org/2000/svg" xmlns:xlink="http://www.w3.org/1999/xlink" x="0px" y="0px"
	 width="222.097px" height="512px" viewBox="112.502 0 222.097 512" enable-background="new 112.502 0 222.097 512"
	 xml:space="preserve">
<g>
	<path d="M223.551,144.618c-61.322,0-111.049,49.718-111.049,111.049c0,61.33,49.727,111.05,111.049,111.05
		c61.322,0,111.048-49.72,111.048-111.05C334.6,194.336,284.873,144.618,223.551,144.618z M223.551,349.631
		c-51.812,0-93.965-42.145-93.965-93.964c0-51.805,42.152-93.965,93.965-93.965c51.812,0,93.965,42.161,93.965,93.965
		C317.517,307.486,275.363,349.631,223.551,349.631z"/>
	<path d="M245.434,242.186l-22.089-37.773l-21.607,36.989h0.059c-2.553,3.988-4.08,8.692-4.08,13.781
		c0,14.149,11.47,25.627,25.627,25.627c14.155,0,25.626-11.479,25.626-25.627c0-4.771-1.385-9.176-3.652-12.996L245.434,242.186
		L245.434,242.186z M223.343,263.727c-4.713,0-8.543-3.838-8.543-8.543c0-1.602,0.467-3.136,1.385-4.571l7.382-11.579l7.058,11.879
		c0.833,1.402,1.259,2.837,1.259,4.271C231.885,259.889,228.057,263.727,223.343,263.727z"/>
</g>
</svg>
