<?xml version="1.0" encoding="utf-8"?>
<!-- Generator: Adobe Illustrator 16.0.0, SVG Export Plug-In . SVG Version: 6.00 Build 0)  -->
<!DOCTYPE svg PUBLIC "-//W3C//DTD SVG 1.1//EN" "http://www.w3.org/Graphics/SVG/1.1/DTD/svg11.dtd">
<svg version="1.1" id="Layer_1" xmlns="http://www.w3.org/2000/svg" xmlns:xlink="http://www.w3.org/1999/xlink" x="0px" y="0px"
	 width="222.098px" height="512px" viewBox="112.502 0 222.098 512" enable-background="new 112.502 0 222.098 512"
	 xml:space="preserve">
<g>
	<path d="M223.551,144.618c-61.331,0-111.049,49.718-111.049,111.049c0,61.33,49.719,111.05,111.049,111.05
		c61.33,0,111.049-49.72,111.049-111.05C334.6,194.336,284.882,144.618,223.551,144.618z M223.551,349.631
		c-51.812,0-93.965-42.145-93.965-93.964c0-51.805,42.152-93.965,93.965-93.965c51.812,0,93.965,42.161,93.965,93.965
		C317.517,307.486,275.363,349.631,223.551,349.631z"/>
	<path d="M223.551,229.556c-14.148,0-25.627,11.462-25.627,25.626c0,4.755,1.385,9.162,3.654,12.98h-0.117l22.089,37.773
		l21.607-36.972h-0.052c2.554-3.987,4.071-8.692,4.071-13.783C249.18,241.018,237.716,229.556,223.551,229.556z M230.717,259.755
		l-7.39,11.579l-7.059-11.896c-0.833-1.401-1.259-2.836-1.259-4.254c0-4.721,3.829-8.542,8.542-8.542s8.542,3.82,8.542,8.542
		C232.094,256.785,231.635,258.32,230.717,259.755z"/>
</g>
</svg>
