<?xml version="1.0" encoding="utf-8"?>
<!-- Generator: Adobe Illustrator 16.0.0, SVG Export Plug-In . SVG Version: 6.00 Build 0)  -->
<!DOCTYPE svg PUBLIC "-//W3C//DTD SVG 1.1//EN" "http://www.w3.org/Graphics/SVG/1.1/DTD/svg11.dtd">
<svg version="1.1" id="Layer_1" xmlns="http://www.w3.org/2000/svg" xmlns:xlink="http://www.w3.org/1999/xlink" x="0px" y="0px"
	 width="222.097px" height="512px" viewBox="112.502 0 222.097 512" enable-background="new 112.502 0 222.097 512"
	 xml:space="preserve">
<g>
	<path d="M223.551,144.618c-61.322,0-111.049,49.718-111.049,111.049c0,61.33,49.727,111.05,111.049,111.05
		c61.322,0,111.048-49.72,111.048-111.05C334.6,194.336,284.873,144.618,223.551,144.618z M223.551,349.631
		c-51.812,0-93.965-42.15-93.965-93.964c0-51.813,42.152-93.965,93.965-93.965c51.812,0,93.965,42.152,93.965,93.965
		C317.517,307.479,275.363,349.631,223.551,349.631z"/>
	<path d="M187.104,291.906l54.357-18.121l18.118-54.365l-54.356,18.127L187.104,291.906z M218.73,251.054l13.838-4.613
		l-4.613,13.841l-13.839,4.612L218.73,251.054z"/>
</g>
</svg>
