<?xml version="1.0" encoding="utf-8"?>
<!-- Generator: Adobe Illustrator 16.0.0, SVG Export Plug-In . SVG Version: 6.00 Build 0)  -->
<!DOCTYPE svg PUBLIC "-//W3C//DTD SVG 1.1//EN" "http://www.w3.org/Graphics/SVG/1.1/DTD/svg11.dtd">
<svg version="1.1" id="Layer_1" xmlns="http://www.w3.org/2000/svg" xmlns:xlink="http://www.w3.org/1999/xlink" x="0px" y="0px"
	 width="427.114px" height="512px" viewBox="9.996 0 427.114 512" enable-background="new 9.996 0 427.114 512"
	 xml:space="preserve">
<g>
	<path d="M364.598,218.461c-12.337-57.594-63.49-100.796-124.763-100.796c-15.366,0-30.09,2.736-43.721,7.725
		c-8.108-43.637-46.165-76.713-92.154-76.713c-3.529,0-6.999,0.233-10.436,0.609c6.356,9.501,10.069,20.914,10.069,33.193
		c0,33.018-26.769,59.796-59.795,59.796c-12.288,0-23.691-3.712-33.193-10.069c-0.375,3.429-0.609,6.908-0.609,10.436
		c0,31.708,15.758,59.688,39.816,76.706c-14.123,16.292-22.731,37.491-22.731,60.748c0,51.11,41.31,92.562,92.363,92.813v0.024
		h10.144v-17.086h-6.156l-3.904-0.022c-41.552-0.2-75.362-34.179-75.362-75.729c0-41.77,33.977-75.755,75.746-75.755
		c1.285,0,2.552,0.1,3.82,0.192l1.269,0.083l11.228,0.726l5.097-10.035c19.003-37.347,56.751-60.555,98.511-60.555
		c51.778,0,97.228,36.713,108.054,87.292l2.721,12.671l12.931,0.801c31.675,1.969,56.483,28.355,56.483,60.054
		c0,33.127-26.854,60.097-59.938,60.279c-0.358-0.023-0.675-0.041-1.001-0.041l-17.484,0.041h-7v17.086h24.084v-0.052
		c0.359,0.009,0.7,0.052,1.061,0.052c42.719,0,77.364-34.629,77.364-77.365C437.107,254.482,405.041,220.98,364.598,218.461z
		 M126.1,187.562c-2.061-0.133-4.104-0.308-6.189-0.308c-21.673,0-41.561,7.482-57.36,19.937
		c-17.185-11.052-29.789-28.646-33.96-49.342c4.971,1.001,10.061,1.509,15.208,1.509c42.394,0,76.88-34.486,76.88-76.88
		c0-5.147-0.509-10.236-1.51-15.208c31.892,6.432,56.626,32.667,60.93,65.268C156.94,144.868,138.021,164.138,126.1,187.562z"/>
	<rect x="223.551" y="373.062" width="17.085" height="34.172"/>
	<rect x="291.889" y="338.712" width="17.086" height="34.353"/>
	<rect x="155.213" y="338.712" width="17.085" height="34.353"/>
	<path d="M300.434,403.138c-7.066,0-12.814,5.729-12.814,12.813c0,7.082,5.748,12.812,12.814,12.812
		c7.064,0,12.812-5.73,12.812-12.812C313.245,408.867,307.498,403.138,300.434,403.138z"/>
	<path d="M232.094,437.039c-7.066,0-12.813,5.732-12.813,12.812c0,7.084,5.747,12.813,12.813,12.813
		c7.065,0,12.813-5.729,12.813-12.813C244.907,442.771,239.159,437.039,232.094,437.039z"/>
	<path d="M163.755,402.778c-7.066,0-12.813,5.73-12.813,12.813c0,7.081,5.747,12.812,12.813,12.812
		c7.065,0,12.813-5.731,12.813-12.812C176.569,408.51,170.821,402.778,163.755,402.778z"/>
</g>
</svg>
