<?xml version="1.0" encoding="utf-8"?>
<!-- Generator: Adobe Illustrator 16.0.0, SVG Export Plug-In . SVG Version: 6.00 Build 0)  -->
<!DOCTYPE svg PUBLIC "-//W3C//DTD SVG 1.1//EN" "http://www.w3.org/Graphics/SVG/1.1/DTD/svg11.dtd">
<svg version="1.1" id="Layer_1" xmlns="http://www.w3.org/2000/svg" xmlns:xlink="http://www.w3.org/1999/xlink" x="0px" y="0px"
	 width="495.452px" height="512px" viewBox="-24.174 0 495.452 512" enable-background="new -24.174 0 495.452 512"
	 xml:space="preserve">
<g>
	<rect x="138.129" y="8.483" width="17.084" height="68.105"/>
	<rect x="-24.174" y="170.052" width="68.104" height="17.084"/>
	
		<rect x="15.746" y="73.811" transform="matrix(-0.7071 -0.7071 0.7071 -0.7071 26.7897 175.7999)" width="68.117" height="17.082"/>
	
		<rect x="233.641" y="48.339" transform="matrix(-0.7071 -0.7071 0.7071 -0.7071 355.1703 311.8906)" width="17.081" height="68.093"/>
	<rect x="257.721" y="357.632" width="17.084" height="59.796"/>
	<rect x="326.058" y="323.463" width="17.085" height="59.795"/>
	<rect x="189.382" y="323.463" width="17.085" height="59.795"/>
	<rect x="257.721" y="443.054" width="17.084" height="59.796"/>
	<rect x="326.058" y="408.885" width="17.085" height="59.796"/>
	<rect x="189.382" y="408.885" width="17.085" height="59.796"/>
	<path d="M398.768,228.788c-12.339-57.593-63.49-100.797-124.765-100.797c-18.661,0-36.369,4.013-52.329,11.22
		c-14.24-27.354-42.77-46.072-75.737-46.072c-47.174,0-85.422,38.239-85.422,85.414c0,21.013,7.683,40.167,20.271,55.032
		c-12.205,15.717-19.537,35.396-19.537,56.835c0,51.111,41.31,92.562,92.363,92.814v0.022h10.144v-17.084H157.6l-3.904-0.024
		c-41.552-0.198-75.362-34.178-75.362-75.729c0-41.769,33.977-75.755,75.746-75.755c1.284,0,2.552,0.101,3.82,0.192l1.269,0.083
		l11.228,0.725l5.097-10.035c19.003-37.348,56.751-60.554,98.51-60.554c51.781,0,97.229,36.713,108.056,87.291l2.721,12.671
		l12.929,0.801c31.676,1.969,56.484,28.355,56.484,60.055c0,33.127-26.854,60.098-59.938,60.279
		c-0.359-0.025-0.676-0.041-1.001-0.041l-17.485,0.041h-6.999v17.084h24.085v-0.049c0.357,0.008,0.699,0.049,1.059,0.049
		c42.721,0,77.364-34.628,77.364-77.363C471.276,264.811,439.209,231.308,398.768,228.788z M160.269,197.89
		c-2.061-0.134-4.104-0.309-6.189-0.309c-23.625,0-45.122,8.893-61.506,23.433c-9.327-11.67-14.975-26.395-14.975-42.461
		c0-37.672,30.657-68.33,68.338-68.33c26.402,0,49.201,15.149,60.571,37.115C186.88,159.641,170.821,177.134,160.269,197.89z"/>
</g>
</svg>
