<?xml version="1.0" encoding="utf-8"?>
<!-- Generator: Adobe Illustrator 16.0.0, SVG Export Plug-In . SVG Version: 6.00 Build 0)  -->
<!DOCTYPE svg PUBLIC "-//W3C//DTD SVG 1.1//EN" "http://www.w3.org/Graphics/SVG/1.1/DTD/svg11.dtd">
<svg version="1.1" id="Layer_1" xmlns="http://www.w3.org/2000/svg" xmlns:xlink="http://www.w3.org/1999/xlink" x="0px" y="0px"
	 width="435.656px" height="512px" viewBox="5.723 0 435.656 512" enable-background="new 5.723 0 435.656 512"
	 xml:space="preserve">
<g>
	<rect x="14.267" y="319.6" width="427.112" height="17.086"/>
	<rect x="48.435" y="370.854" width="375.859" height="17.084"/>
	<rect x="99.689" y="413.564" width="256.267" height="17.085"/>
	<rect x="31.351" y="268.348" width="392.943" height="17.084"/>
	<path d="M45.382,251.262h0.316h16.093H70.8c12.571-9.285,28.046-14.84,44.838-14.84c1.285,0,2.553,0.1,3.821,0.191l1.268,0.083
		l11.229,0.727l5.096-10.036c19.003-37.347,56.751-60.554,98.511-60.554c50.787,0,95.4,35.353,107.312,84.429h17.451v-0.717
		c-12.337-57.593-63.49-100.797-124.764-100.797c-15.366,0-30.082,2.736-43.711,7.716c-8.075-43.662-46.148-76.772-92.163-76.772
		c-3.529,0-6.999,0.234-10.437,0.61c6.357,9.501,10.069,20.913,10.069,33.192c0,33.018-26.769,59.795-59.795,59.795
		c-12.288,0-23.691-3.712-33.193-10.068c-0.375,3.428-0.609,6.907-0.609,10.436C5.724,206.298,21.407,234.235,45.382,251.262z
		 M39.526,191.375c42.394,0,76.88-34.487,76.88-76.881c0-5.147-0.509-10.235-1.51-15.207c31.909,6.431,56.66,32.701,60.939,65.326
		c-23.166,12.33-42.085,31.6-54.006,55.033c-2.061-0.133-4.104-0.309-6.19-0.309c-21.648,0-41.477,7.508-57.243,19.946
		c-17.251-11.045-29.897-28.671-34.077-49.418C29.29,190.865,34.379,191.375,39.526,191.375z"/>
</g>
</svg>
