<?xml version="1.0" encoding="utf-8"?>
<!-- Generator: Adobe Illustrator 16.0.0, SVG Export Plug-In . SVG Version: 6.00 Build 0)  -->
<!DOCTYPE svg PUBLIC "-//W3C//DTD SVG 1.1//EN" "http://www.w3.org/Graphics/SVG/1.1/DTD/svg11.dtd">
<svg version="1.1" id="Layer_1" xmlns="http://www.w3.org/2000/svg" xmlns:xlink="http://www.w3.org/1999/xlink" x="0px" y="0px"
	 width="503.992px" height="512px" viewBox="-28.445 0 503.992 512" enable-background="new -28.445 0 503.992 512"
	 xml:space="preserve">
<g>
	<rect x="133.858" y="55.466" width="17.084" height="68.104"/>
	<rect x="-28.445" y="217.035" width="68.104" height="17.084"/>
	
		<rect x="11.475" y="120.792" transform="matrix(-0.7071 -0.7071 0.7071 -0.7071 -13.7219 252.9837)" width="68.117" height="17.083"/>
	
		<rect x="229.39" y="95.314" transform="matrix(-0.7071 -0.7071 0.7071 -0.7071 314.6959 389.0777)" width="17.081" height="68.094"/>
	<rect x="48.435" y="344.826" width="427.112" height="17.084"/>
	<rect x="82.604" y="396.08" width="375.858" height="17.084"/>
	<rect x="133.858" y="438.792" width="256.266" height="17.084"/>
	<rect x="65.52" y="293.572" width="392.942" height="17.087"/>
	<path d="M73.278,276.488h6.59h16.459h8.643c12.571-9.284,28.046-14.842,44.838-14.842c1.284,0,2.552,0.101,3.82,0.193l1.268,0.082
		l11.229,0.727l5.097-10.037c19.003-37.346,56.75-60.555,98.51-60.555c50.787,0,95.399,35.354,107.312,84.429h17.451v-0.717
		c-12.338-57.594-63.491-100.796-124.764-100.796c-18.662,0-36.371,4.012-52.33,11.22c-14.24-27.354-42.77-46.074-75.738-46.074
		c-47.174,0-85.422,38.241-85.422,85.414C56.244,244.68,62.634,262.266,73.278,276.488z M141.666,157.206
		c26.403,0,49.202,15.149,60.572,37.113c-19.628,12.305-35.687,29.797-46.24,50.553c-2.061-0.134-4.104-0.309-6.189-0.309
		c-23.608,0-45.056,8.926-61.415,23.449c-9.368-11.67-15.065-26.386-15.065-42.478C73.328,187.862,103.985,157.206,141.666,157.206z
		"/>
</g>
</svg>
