<?xml version="1.0" encoding="utf-8"?>
<!-- Generator: Adobe Illustrator 16.0.0, SVG Export Plug-In . SVG Version: 6.00 Build 0)  -->
<!DOCTYPE svg PUBLIC "-//W3C//DTD SVG 1.1//EN" "http://www.w3.org/Graphics/SVG/1.1/DTD/svg11.dtd">
<svg version="1.1" id="Layer_1" xmlns="http://www.w3.org/2000/svg" xmlns:xlink="http://www.w3.org/1999/xlink" x="0px" y="0px"
	 width="444.196px" height="512px" viewBox="1.454 0 444.196 512" enable-background="new 1.454 0 444.196 512"
	 xml:space="preserve">
<path d="M414.691,153.485v-0.325H86.875c-9.418,0-17.084-7.667-17.084-17.084s7.667-17.084,17.084-17.084H368.77
	c23.592,0,42.712-19.12,42.712-42.711c0-23.591-19.12-42.711-42.712-42.711H45.232v0.067c-0.358-0.009-0.708-0.067-1.067-0.067
	c-23.591,0-42.711,19.12-42.711,42.711c0,23.591,19.12,42.711,42.711,42.711v-17.084c-14.131,0-25.627-11.496-25.627-25.627
	c0-14.131,11.496-25.626,25.627-25.626h1.067h32.91H368.77c14.133,0,25.627,11.495,25.627,25.626
	c0,14.131-11.494,25.627-25.627,25.627H86.875c-18.87,0-34.169,15.299-34.169,34.169c0,18.87,15.3,34.168,34.169,34.168H411.48
	c9.418,0,17.085,7.667,17.085,17.085s-7.667,17.084-17.085,17.084H138.129c-18.87,0-34.169,15.3-34.169,34.169
	c0,18.872,15.299,34.169,34.169,34.169h187.929c9.419,0,17.085,7.667,17.085,17.084c0,9.418-7.666,17.087-17.085,17.087H120.961
	v0.009c-18.828,0.049-34.085,15.313-34.085,34.158c0,18.846,15.257,34.111,34.085,34.161v0.011h102.59
	c9.418,0,17.085,7.664,17.085,17.082c0,9.419-7.667,17.084-17.085,17.084h-17.084c-18.87,0-34.169,15.301-34.169,34.169
	c0,18.871,15.299,34.169,34.169,34.169v-17.084c-9.418,0-17.085-7.665-17.085-17.085c0-9.418,7.667-17.083,17.085-17.083h17.084
	c18.871,0,34.168-15.3,34.168-34.17c0-18.869-15.298-34.17-34.168-34.17H121.044c-9.418,0-17.084-7.666-17.084-17.084
	s7.666-17.084,17.084-17.084h205.013c18.87,0,34.169-15.301,34.169-34.17c0-18.385-14.557-33.268-32.751-34.025v-0.143H138.129
	c-9.418,0-17.084-7.667-17.084-17.085c0-9.417,7.667-17.084,17.084-17.084H411.48c18.869,0,34.17-15.299,34.17-34.169
	C445.65,169.56,432.035,155.128,414.691,153.485z"/>
</svg>
