<?xml version="1.0" encoding="utf-8"?>
<!-- Generator: Adobe Illustrator 16.0.0, SVG Export Plug-In . SVG Version: 6.00 Build 0)  -->
<!DOCTYPE svg PUBLIC "-//W3C//DTD SVG 1.1//EN" "http://www.w3.org/Graphics/SVG/1.1/DTD/svg11.dtd">
<svg version="1.1" id="Layer_1" xmlns="http://www.w3.org/2000/svg" xmlns:xlink="http://www.w3.org/1999/xlink" x="0px" y="0px"
	 width="427.112px" height="512px" viewBox="9.996 0 427.112 512" enable-background="new 9.996 0 427.112 512"
	 xml:space="preserve">
<g>
	<path d="M364.598,220.588c-12.337-57.593-63.49-100.796-124.763-100.796c-15.366,0-30.081,2.736-43.721,7.725
		c-8.108-43.637-46.165-76.713-92.154-76.713c-3.529,0-6.999,0.234-10.436,0.609c6.356,9.502,10.069,20.914,10.069,33.193
		c0,33.018-26.769,59.795-59.795,59.795c-12.288,0-23.691-3.712-33.193-10.069c-0.375,3.429-0.609,6.907-0.609,10.436
		c0,31.708,15.758,59.687,39.816,76.705c-14.123,16.292-22.731,37.49-22.731,60.748c0,51.112,41.31,92.563,92.363,92.812v0.025
		h35.771v-17.084H123.43l-3.904-0.024c-41.552-0.201-75.362-34.179-75.362-75.729c0-41.77,33.977-75.754,75.746-75.754
		c1.285,0,2.552,0.1,3.82,0.191l1.269,0.084l11.228,0.726l5.097-10.036c19.003-37.347,56.751-60.555,98.511-60.555
		c51.778,0,97.228,36.714,108.054,87.292l2.721,12.671l12.931,0.801c31.675,1.968,56.483,28.356,56.483,60.054
		c0,33.125-26.854,60.096-59.938,60.281c-0.358-0.025-0.675-0.043-1.001-0.043l-17.484,0.043h-32.625v17.082h49.709v-0.05
		c0.359,0.009,0.7,0.05,1.061,0.05c42.719,0,77.364-34.627,77.364-77.363C437.107,256.609,405.041,223.107,364.598,220.588z
		 M126.1,189.689c-2.061-0.133-4.104-0.308-6.189-0.308c-21.673,0-41.561,7.483-57.36,19.938
		c-17.185-11.053-29.781-28.646-33.96-49.343c4.971,1.001,10.061,1.509,15.208,1.509c42.394,0,76.88-34.486,76.88-76.88
		c0-5.147-0.509-10.235-1.51-15.208c31.892,6.432,56.626,32.667,60.939,65.26C156.932,146.995,138.012,166.256,126.1,189.689z"/>
	<polygon points="230.742,375.116 245.857,375.116 249.536,375.116 266.705,375.116 211.914,296.859 197.924,306.662 
		233.896,358.032 218.771,358.032 197.924,358.032 208.786,373.549 218.288,387.121 269.35,460.539 283.348,450.746 
		232.285,377.318 	"/>
</g>
</svg>
