<?xml version="1.0" encoding="utf-8"?>
<!-- Generator: Adobe Illustrator 16.0.0, SVG Export Plug-In . SVG Version: 6.00 Build 0)  -->
<!DOCTYPE svg PUBLIC "-//W3C//DTD SVG 1.1//EN" "http://www.w3.org/Graphics/SVG/1.1/DTD/svg11.dtd">
<svg version="1.1" id="Layer_1" xmlns="http://www.w3.org/2000/svg" xmlns:xlink="http://www.w3.org/1999/xlink" x="0px" y="0px"
	 width="495.452px" height="512px" viewBox="-24.174 0 495.452 512" enable-background="new -24.174 0 495.452 512"
	 xml:space="preserve">
<g>
	<polygon points="313.42,425.86 254.626,341.891 240.637,351.691 299.432,435.662 308.933,449.234 338.621,491.637 352.618,481.845 
		322.931,439.433 	"/>
	<polygon points="381.774,425.845 322.964,341.891 308.975,351.701 367.793,435.654 376.377,447.918 406.992,491.614 
		420.99,481.819 390.375,438.116 	"/>
	<polygon points="245.082,425.86 186.288,341.891 172.298,351.701 231.093,435.662 241.211,450.118 270.291,491.646 
		284.279,481.845 255.21,440.317 	"/>
	<rect x="138.129" y="19.687" width="17.084" height="68.104"/>
	<rect x="-24.174" y="181.255" width="68.104" height="17.084"/>
	
		<rect x="15.745" y="85.013" transform="matrix(-0.7071 -0.7071 0.7071 -0.7071 18.8681 194.9243)" width="68.118" height="17.083"/>
	
		<rect x="233.635" y="59.544" transform="matrix(-0.7071 -0.7071 0.7071 -0.7071 347.2558 331.0079)" width="17.083" height="68.094"/>
	<path d="M398.768,239.991c-12.339-57.593-63.49-100.796-124.765-100.796c-18.661,0-36.369,4.013-52.329,11.22
		c-14.24-27.353-42.77-46.073-75.737-46.073c-47.174,0-85.422,38.24-85.422,85.414c0,21.013,7.683,40.167,20.271,55.032
		c-12.205,15.716-19.537,35.396-19.537,56.835c0,51.111,41.31,92.562,92.363,92.812v0.024h10.144v-17.084H157.6l-3.904-0.024
		c-41.552-0.201-75.362-34.179-75.362-75.729c0-41.771,33.977-75.755,75.746-75.755c1.284,0,2.552,0.1,3.82,0.192l1.269,0.084
		l11.228,0.725l5.097-10.036c19.003-37.347,56.751-60.554,98.51-60.554c51.781,0,97.229,36.713,108.056,87.291l2.721,12.671
		l12.929,0.802c31.676,1.967,56.484,28.354,56.484,60.054c0,33.127-26.854,60.096-59.938,60.28
		c-0.359-0.024-0.676-0.043-1.001-0.043l-0.399,0.043h-7v17.084h7v-0.051c0.357,0.01,0.699,0.051,1.059,0.051
		c42.721,0,77.364-34.628,77.364-77.364C471.276,276.014,439.209,242.511,398.768,239.991z M160.269,209.093
		c-2.061-0.134-4.104-0.309-6.189-0.309c-23.625,0-45.122,8.901-61.506,23.433c-9.327-11.678-14.975-26.395-14.975-42.46
		c0-37.672,30.657-68.33,68.338-68.33c26.402,0,49.201,15.15,60.571,37.114C186.88,170.837,170.821,188.338,160.269,209.093z"/>
</g>
</svg>
