<?xml version="1.0" encoding="utf-8"?>
<!-- Generator: Adobe Illustrator 16.0.0, SVG Export Plug-In . SVG Version: 6.00 Build 0)  -->
<!DOCTYPE svg PUBLIC "-//W3C//DTD SVG 1.1//EN" "http://www.w3.org/Graphics/SVG/1.1/DTD/svg11.dtd">
<svg version="1.1" id="Layer_1" xmlns="http://www.w3.org/2000/svg" xmlns:xlink="http://www.w3.org/1999/xlink" x="0px" y="0px"
	 width="495.452px" height="512px" viewBox="-24.174 0 495.452 512" enable-background="new -24.174 0 495.452 512"
	 xml:space="preserve">
<g>
	<polygon points="257.721,438.908 257.721,455.484 257.721,507.246 274.805,507.246 274.805,455.484 274.805,438.908 274.805,336.4 
		257.721,336.4 	"/>
	<polygon points="326.058,404.739 326.058,419.714 326.058,473.077 343.143,473.077 343.143,419.714 343.143,404.739 
		343.143,302.23 326.058,302.23 	"/>
	<polygon points="189.382,404.739 189.382,422.382 189.382,473.077 206.467,473.077 206.467,422.382 206.467,404.739 
		206.467,302.23 189.382,302.23 	"/>
	<rect x="138.129" y="4.087" width="17.084" height="68.104"/>
	<rect x="-24.174" y="165.656" width="68.104" height="17.084"/>
	
		<rect x="15.745" y="69.414" transform="matrix(-0.7071 -0.7071 0.7071 -0.7071 29.8975 168.2946)" width="68.117" height="17.083"/>
	
		<rect x="233.65" y="43.938" transform="matrix(-0.7071 -0.7071 0.7071 -0.7071 358.2976 304.3867)" width="17.083" height="68.094"/>
	<path d="M398.768,224.393c-12.339-57.594-63.49-100.797-124.765-100.797c-18.661,0-36.369,4.012-52.337,11.22
		c-14.231-27.354-42.761-46.074-75.729-46.074c-47.174,0-85.422,38.24-85.422,85.414c0,21.014,7.675,40.167,20.271,55.032
		c-12.196,15.717-19.537,35.396-19.537,56.835c0,51.111,41.31,92.562,92.363,92.812v0.024h10.144v-17.084H157.6l-3.904-0.024
		c-41.552-0.2-75.362-34.177-75.362-75.729c0-41.769,33.977-75.753,75.746-75.753c1.284,0,2.552,0.1,3.82,0.191l1.269,0.083
		l11.228,0.726l5.097-10.035c19.003-37.348,56.751-60.556,98.51-60.556c51.781,0,97.229,36.713,108.056,87.292l2.721,12.671
		l12.929,0.8c31.676,1.97,56.484,28.356,56.484,60.056c0,33.126-26.854,60.096-59.938,60.277c-0.36-0.024-0.676-0.041-1.001-0.041
		l-17.485,0.041h-6.999v17.084h24.085v-0.051c0.357,0.01,0.699,0.051,1.059,0.051c42.721,0,77.364-34.627,77.364-77.361
		C471.276,260.413,439.209,226.912,398.768,224.393z M160.269,193.494c-2.061-0.133-4.104-0.309-6.189-0.309
		c-23.625,0-45.114,8.901-61.506,23.433c-9.327-11.679-14.975-26.394-14.975-42.461c0-37.673,30.657-68.329,68.338-68.329
		c26.411,0,49.201,15.149,60.58,37.114C186.88,155.236,170.83,172.739,160.269,193.494z"/>
</g>
</svg>
