<?xml version="1.0" encoding="utf-8"?>
<!-- Generator: Adobe Illustrator 16.0.0, SVG Export Plug-In . SVG Version: 6.00 Build 0)  -->
<!DOCTYPE svg PUBLIC "-//W3C//DTD SVG 1.1//EN" "http://www.w3.org/Graphics/SVG/1.1/DTD/svg11.dtd">
<svg version="1.1" id="Layer_1" xmlns="http://www.w3.org/2000/svg" xmlns:xlink="http://www.w3.org/1999/xlink" x="0px" y="0px"
	 width="427.114px" height="512px" viewBox="9.996 0 427.114 512" enable-background="new 9.996 0 427.114 512"
	 xml:space="preserve">
<g>
	<polygon points="223.551,413.648 223.551,430.225 223.551,481.986 240.637,481.986 240.637,430.225 240.637,413.648 
		240.637,311.143 223.551,311.143 	"/>
	<polygon points="291.889,379.479 291.889,394.454 291.889,447.817 308.975,447.817 308.975,394.454 308.975,379.479 
		308.975,276.975 291.889,276.975 	"/>
	<polygon points="155.213,379.479 155.213,397.122 155.213,447.817 172.298,447.817 172.298,397.122 172.298,379.479 
		172.298,276.975 155.213,276.975 	"/>
	<path d="M364.598,199.133c-12.337-57.594-63.49-100.797-124.763-100.797c-15.366,0-30.081,2.736-43.721,7.724
		c-8.108-43.637-46.165-76.713-92.154-76.713c-3.529,0-6.999,0.233-10.436,0.609c6.356,9.501,10.069,20.913,10.069,33.192
		c0,33.018-26.769,59.795-59.795,59.795c-12.288,0-23.691-3.712-33.193-10.068c-0.375,3.429-0.609,6.908-0.609,10.436
		c0,31.708,15.758,59.688,39.816,76.705c-14.123,16.292-22.731,37.489-22.731,60.748c0,51.111,41.31,92.562,92.363,92.812v0.024
		h10.144v-17.084h-6.156l-3.904-0.024c-41.552-0.2-75.362-34.177-75.362-75.729c0-41.769,33.977-75.754,75.746-75.754
		c1.285,0,2.552,0.1,3.82,0.192l1.269,0.083l11.228,0.726l5.097-10.035c19.003-37.348,56.751-60.556,98.511-60.556
		c51.778,0,97.228,36.713,108.054,87.292l2.721,12.672l12.931,0.8c31.675,1.969,56.483,28.354,56.483,60.056
		c0,33.125-26.854,60.096-59.938,60.277c-0.358-0.024-0.675-0.041-1.001-0.041l-17.484,0.041h-7V353.6h24.084v-0.049
		c0.359,0.008,0.7,0.049,1.061,0.049c42.719,0,77.364-34.627,77.364-77.361C437.107,235.154,405.041,201.651,364.598,199.133z
		 M126.1,168.234c-2.061-0.133-4.104-0.309-6.189-0.309c-21.673,0-41.561,7.482-57.36,19.938
		c-17.185-11.053-29.781-28.646-33.96-49.343c4.971,1.001,10.061,1.51,15.208,1.51c42.394,0,76.88-34.486,76.88-76.88
		c0-5.147-0.509-10.236-1.51-15.208c31.892,6.432,56.626,32.668,60.939,65.268C156.932,125.54,138.012,144.81,126.1,168.234z"/>
</g>
</svg>
