<?xml version="1.0" encoding="utf-8"?>
<!-- Generator: Adobe Illustrator 16.0.0, SVG Export Plug-In . SVG Version: 6.00 Build 0)  -->
<!DOCTYPE svg PUBLIC "-//W3C//DTD SVG 1.1//EN" "http://www.w3.org/Graphics/SVG/1.1/DTD/svg11.dtd">
<svg version="1.1" id="Layer_1" xmlns="http://www.w3.org/2000/svg" xmlns:xlink="http://www.w3.org/1999/xlink" x="0px" y="0px"
	 width="427.114px" height="512px" viewBox="9.996 0 427.114 512" enable-background="new 9.996 0 427.114 512"
	 xml:space="preserve">
<g>
	<polygon points="279.251,400.603 220.457,316.63 206.467,326.432 265.261,410.402 274.764,423.976 304.452,466.379 
		318.451,456.585 288.761,414.173 	"/>
	<polygon points="347.605,400.585 288.794,316.63 274.805,326.441 333.624,410.395 342.208,422.658 372.824,466.354 386.822,456.56 
		356.206,412.856 	"/>
	<polygon points="210.913,400.603 152.119,316.63 138.129,326.441 196.923,410.402 207.042,424.858 236.123,466.387 
		250.111,456.585 221.041,415.057 	"/>
	<path d="M364.598,214.732c-12.337-57.594-63.49-100.797-124.763-100.797c-15.366,0-30.09,2.736-43.721,7.725
		c-8.108-43.637-46.165-76.713-92.154-76.713c-3.529,0-6.999,0.234-10.436,0.609c6.356,9.502,10.069,20.914,10.069,33.193
		c0,33.018-26.769,59.796-59.795,59.796c-12.288,0-23.691-3.712-33.193-10.069c-0.375,3.429-0.609,6.907-0.609,10.437
		c0,31.708,15.758,59.687,39.816,76.705c-14.123,16.292-22.731,37.489-22.731,60.748c0,51.11,41.31,92.563,92.363,92.812v0.025
		h10.144v-17.084h-6.156l-3.904-0.025c-41.552-0.199-75.362-34.178-75.362-75.729c0-41.771,33.977-75.755,75.746-75.755
		c1.285,0,2.552,0.1,3.82,0.192l1.269,0.084l11.228,0.725l5.097-10.035c19.003-37.348,56.751-60.555,98.511-60.555
		c51.778,0,97.228,36.713,108.054,87.291l2.721,12.671l12.931,0.802c31.675,1.968,56.483,28.355,56.483,60.053
		c0,33.128-26.854,60.1-59.938,60.281c-0.358-0.025-0.675-0.043-1.001-0.043l-0.4,0.043h-6.998v17.084h6.998v-0.051
		c0.359,0.01,0.7,0.051,1.061,0.051c42.719,0,77.364-34.628,77.364-77.365C437.107,250.752,405.041,217.252,364.598,214.732z
		 M126.1,183.833c-2.061-0.133-4.104-0.309-6.189-0.309c-21.673,0-41.561,7.483-57.36,19.938
		c-17.185-11.053-29.789-28.646-33.96-49.343c4.971,1.001,10.061,1.51,15.208,1.51c42.394,0,76.88-34.486,76.88-76.88
		c0-5.146-0.509-10.236-1.51-15.208c31.892,6.432,56.626,32.667,60.93,65.269C156.94,141.138,138.021,160.408,126.1,183.833z"/>
</g>
</svg>
