<?xml version="1.0" encoding="utf-8"?>
<!-- Generator: Adobe Illustrator 16.0.0, SVG Export Plug-In . SVG Version: 6.00 Build 0)  -->
<!DOCTYPE svg PUBLIC "-//W3C//DTD SVG 1.1//EN" "http://www.w3.org/Graphics/SVG/1.1/DTD/svg11.dtd">
<svg version="1.1" id="Layer_1" xmlns="http://www.w3.org/2000/svg" xmlns:xlink="http://www.w3.org/1999/xlink" x="0px" y="0px"
	 width="427.114px" height="512px" viewBox="9.996 0 427.114 512" enable-background="new 9.996 0 427.114 512"
	 xml:space="preserve">
<g>
	<g>
		<path d="M364.598,233.293c-12.337-57.593-63.49-100.797-124.763-100.797c-15.366,0-30.081,2.736-43.721,7.725
			c-8.108-43.637-46.165-76.713-92.154-76.713c-3.529,0-6.999,0.234-10.436,0.609c6.356,9.502,10.069,20.914,10.069,33.193
			c0,33.018-26.769,59.795-59.795,59.795c-12.288,0-23.691-3.711-33.193-10.068c-0.375,3.429-0.609,6.907-0.609,10.436
			c0,31.708,15.758,59.688,39.816,76.705c-14.123,16.292-22.731,37.488-22.731,60.747c0,51.11,41.31,92.563,92.363,92.814v0.022
			h10.144v-17.084h-6.156l-3.904-0.025c-41.552-0.198-75.362-34.176-75.362-75.729c0-41.77,33.977-75.755,75.746-75.755
			c1.285,0,2.552,0.101,3.82,0.192l1.269,0.083l11.228,0.726l5.097-10.035c19.003-37.348,56.751-60.555,98.511-60.555
			c51.778,0,97.228,36.713,108.054,87.291l2.721,12.671l12.931,0.8c31.675,1.97,56.483,28.354,56.483,60.057
			c0,33.125-26.854,60.096-59.938,60.278c-0.358-0.024-0.675-0.04-1.001-0.04l-17.484,0.04H326.06v17.084h32.626v-0.049
			c0.359,0.008,0.7,0.049,1.061,0.049c42.719,0,77.364-34.628,77.364-77.362C437.107,269.312,405.041,235.812,364.598,233.293z
			 M126.1,202.395c-2.061-0.134-4.104-0.309-6.189-0.309c-21.673,0-41.561,7.483-57.36,19.938
			C45.366,210.97,32.77,193.377,28.59,172.68c4.971,1.001,10.061,1.51,15.208,1.51c42.394,0,76.88-34.486,76.88-76.88
			c0-5.147-0.509-10.235-1.51-15.208c31.892,6.432,56.626,32.667,60.939,65.26C156.932,159.7,138.012,178.962,126.1,202.395z"/>
	</g>
	<g>
		<path d="M159.484,319.508c-7.074,0-12.813,5.739-12.813,12.812c0,7.076,5.74,12.814,12.813,12.814
			c7.073,0,12.814-5.738,12.814-12.814C172.298,325.247,166.558,319.508,159.484,319.508z"/>
	</g>
	<g>
		<path d="M193.653,370.762c-7.074,0-12.813,5.74-12.813,12.812c0,7.074,5.739,12.812,12.813,12.812
			c7.074,0,12.814-5.738,12.814-12.812C206.467,376.502,200.727,370.762,193.653,370.762z"/>
	</g>
	<g>
		<path d="M261.991,370.762c-7.073,0-12.812,5.74-12.812,12.812c0,7.074,5.738,12.812,12.812,12.812s12.812-5.738,12.812-12.812
			C274.805,376.502,269.064,370.762,261.991,370.762z"/>
	</g>
	<g>
		<circle cx="227.822" cy="332.322" r="12.814"/>
	</g>
	<g>
		<circle cx="296.16" cy="332.322" r="12.814"/>
	</g>
	<g>
		<path d="M159.484,422.199c-7.074,0-12.813,5.739-12.813,12.812c0,7.073,5.74,12.813,12.813,12.813
			c7.073,0,12.814-5.74,12.814-12.813C172.298,427.938,166.558,422.199,159.484,422.199z"/>
	</g>
	<g>
		<path d="M227.822,422.199c-7.074,0-12.813,5.739-12.813,12.812c0,7.073,5.739,12.813,12.813,12.813s12.814-5.74,12.814-12.813
			C240.637,427.938,234.896,422.199,227.822,422.199z"/>
	</g>
	<g>
		<path d="M296.16,422.199c-7.074,0-12.812,5.739-12.812,12.812c0,7.073,5.738,12.813,12.812,12.813s12.813-5.74,12.813-12.813
			C308.974,427.938,303.234,422.199,296.16,422.199z"/>
	</g>
</g>
</svg>
