<?xml version="1.0" encoding="utf-8"?>
<!-- Generator: Adobe Illustrator 16.0.0, SVG Export Plug-In . SVG Version: 6.00 Build 0)  -->
<!DOCTYPE svg PUBLIC "-//W3C//DTD SVG 1.1//EN" "http://www.w3.org/Graphics/SVG/1.1/DTD/svg11.dtd">
<svg version="1.1" id="Layer_1" xmlns="http://www.w3.org/2000/svg" xmlns:xlink="http://www.w3.org/1999/xlink" x="0px" y="0px"
	 width="495.452px" height="512px" viewBox="-24.174 0 495.452 512" enable-background="new -24.174 0 495.452 512"
	 xml:space="preserve">
<g>
	<rect x="138.129" y="25.56" width="17.084" height="68.104"/>
	<rect x="-24.174" y="187.129" width="68.104" height="17.084"/>
	
		<rect x="15.746" y="90.886" transform="matrix(-0.7071 -0.7071 0.7071 -0.7071 14.7152 204.9502)" width="68.117" height="17.083"/>
	
		<rect x="233.64" y="65.415" transform="matrix(-0.7071 -0.7071 0.7071 -0.7071 343.0936 341.0419)" width="17.081" height="68.094"/>
	<path d="M398.768,245.864c-12.339-57.593-63.49-100.796-124.765-100.796c-18.661,0-36.369,4.021-52.337,11.229
		c-14.231-27.362-42.761-46.082-75.729-46.082c-47.174,0-85.422,38.24-85.422,85.415c0,21.013,7.683,40.166,20.271,55.032
		c-12.196,15.718-19.537,35.396-19.537,56.834c0,51.111,41.31,92.562,92.363,92.813v0.023h10.144V383.25H157.6l-3.904-0.025
		c-41.552-0.199-75.362-34.176-75.362-75.729c0-41.768,33.977-75.753,75.746-75.753c1.284,0,2.552,0.1,3.82,0.191l1.269,0.084
		l11.228,0.726l5.097-10.036c19.003-37.347,56.751-60.554,98.51-60.554c51.781,0,97.229,36.714,108.056,87.291l2.721,12.673
		l12.929,0.8c31.676,1.971,56.484,28.354,56.484,60.055c0,33.127-26.854,60.096-59.938,60.279c-0.36-0.025-0.676-0.041-1.001-0.041
		l-15.941,0.041v17.083h15.541v-0.048c0.358,0.007,0.7,0.048,1.06,0.048c42.721,0,77.364-34.627,77.364-77.362
		C471.276,281.886,439.209,248.384,398.768,245.864z M160.269,214.965c-2.061-0.133-4.104-0.308-6.189-0.308
		c-23.625,0-45.122,8.892-61.506,23.424c-9.327-11.662-14.975-26.386-14.975-42.452c0-37.673,30.657-68.33,68.338-68.33
		c26.411,0,49.201,15.149,60.571,37.122C186.88,176.717,170.83,194.211,160.269,214.965z"/>
	<polygon points="223.485,391.959 223.485,369.494 242.045,379.939 247.902,369.511 226.805,357.641 247.902,345.77 
		242.045,335.342 223.485,345.786 223.485,323.621 206.4,323.621 206.4,346.16 187.172,335.342 181.316,345.77 202.413,357.641 
		181.316,369.511 187.172,379.939 206.4,369.118 206.4,391.959 	"/>
	<polygon points="267.58,429.155 249.02,439.6 249.02,417.436 231.934,417.436 231.934,439.977 212.707,429.155 206.85,439.582 
		227.947,451.455 206.85,463.326 212.707,473.753 231.934,462.934 231.934,485.772 249.02,485.772 249.02,463.308 267.58,473.753 
		273.438,463.326 252.339,451.455 273.438,439.582 	"/>
	<polygon points="344.594,369.511 326.032,379.955 326.032,357.789 308.949,357.789 308.949,380.33 289.721,369.511 
		283.864,379.939 304.961,391.809 283.864,403.68 289.721,414.106 308.949,403.288 308.949,426.127 326.032,426.127 
		326.032,403.662 344.594,414.106 350.45,403.68 329.353,391.809 350.45,379.939 	"/>
</g>
</svg>
