<?xml version="1.0" encoding="utf-8"?>
<!-- Generator: Adobe Illustrator 16.0.0, SVG Export Plug-In . SVG Version: 6.00 Build 0)  -->
<!DOCTYPE svg PUBLIC "-//W3C//DTD SVG 1.1//EN" "http://www.w3.org/Graphics/SVG/1.1/DTD/svg11.dtd">
<svg version="1.1" id="Layer_1" xmlns="http://www.w3.org/2000/svg" xmlns:xlink="http://www.w3.org/1999/xlink" x="0px" y="0px"
	 width="444.197px" height="512px" viewBox="1.453 0 444.197 512" enable-background="new 1.453 0 444.197 512"
	 xml:space="preserve">
<g>
	<path d="M223.551,144.567c-61.331,0-111.049,49.71-111.049,111.041c0,61.339,49.719,111.065,111.049,111.065
		c61.33,0,111.049-49.726,111.049-111.065C334.6,194.277,284.882,144.567,223.551,144.567z M223.551,349.59
		c-51.812,0-93.965-42.16-93.965-93.981c0-51.805,42.152-93.957,93.965-93.957c51.812,0,93.965,42.152,93.965,93.957
		C317.517,307.43,275.363,349.59,223.551,349.59z"/>
	<rect x="214.951" y="33.568" width="17.084" height="85.422"/>
	<rect x="214.951" y="392.343" width="17.084" height="85.422"/>
	<rect x="1.453" y="247.125" width="85.364" height="17.084"/>
	<rect x="360.168" y="247.125" width="85.482" height="17.084"/>
	
		<rect x="340.532" y="85.547" transform="matrix(-0.7071 -0.7071 0.7071 -0.7071 503.9698 468.7683)" width="17.081" height="88.917"/>
	<rect x="89.322" y="336.788" transform="matrix(0.707 0.7072 -0.7072 0.707 298.296 42.4937)" width="17.084" height="88.923"/>
	
		<rect x="53.425" y="121.514" transform="matrix(-0.7071 -0.7071 0.7071 -0.7071 75.1333 291.2311)" width="88.916" height="17.082"/>
	<rect x="304.608" y="372.74" transform="matrix(0.7072 0.707 -0.707 0.7072 371.7704 -135.158)" width="88.924" height="17.082"/>
</g>
</svg>
