<?xml version="1.0" encoding="utf-8"?>
<!-- Generator: Adobe Illustrator 16.0.0, SVG Export Plug-In . SVG Version: 6.00 Build 0)  -->
<!DOCTYPE svg PUBLIC "-//W3C//DTD SVG 1.1//EN" "http://www.w3.org/Graphics/SVG/1.1/DTD/svg11.dtd">
<svg version="1.1" id="Layer_1" xmlns="http://www.w3.org/2000/svg" xmlns:xlink="http://www.w3.org/1999/xlink" x="0px" y="0px"
	 width="444.152px" height="512px" viewBox="1.474 0 444.152 512" enable-background="new 1.474 0 444.152 512"
	 xml:space="preserve">
<g>
	<rect x="214.972" y="101.906" width="17.08" height="85.422"/>
	
		<rect x="340.515" y="153.894" transform="matrix(-0.707 -0.7072 0.7072 -0.707 455.5471 585.4537)" width="17.081" height="88.924"/>
	
		<rect x="53.445" y="189.851" transform="matrix(-0.7071 -0.7071 0.7071 -0.7071 26.8485 407.9047)" width="88.917" height="17.082"/>
	<polygon points="166.554,351.8 178.634,363.879 214.972,327.542 214.972,409.427 232.052,409.427 232.052,327.542 268.391,363.879 
		280.471,351.8 223.514,294.841 	"/>
	<path d="M334.625,323.997c0-0.019,0-0.033,0-0.05c0-61.331-49.718-111.042-111.053-111.042
		c-61.331,0-111.049,49.711-111.049,111.042c0,0.017,0,0.031,0,0.05H1.474v17.084h153.76v-17.084h-25.626c0-0.019,0-0.033,0-0.05
		c0-51.807,42.152-93.958,93.965-93.958c51.809,0,93.969,42.151,93.969,93.958c0,0.017,0,0.031,0,0.05h-25.627v17.084h153.711
		v-17.084H334.625z"/>
</g>
</svg>
