<?xml version="1.0" encoding="utf-8"?>
<!-- Generator: Adobe Illustrator 16.0.0, SVG Export Plug-In . SVG Version: 6.00 Build 0)  -->
<!DOCTYPE svg PUBLIC "-//W3C//DTD SVG 1.1//EN" "http://www.w3.org/Graphics/SVG/1.1/DTD/svg11.dtd">
<svg version="1.1" id="Layer_1" xmlns="http://www.w3.org/2000/svg" xmlns:xlink="http://www.w3.org/1999/xlink" x="0px" y="0px"
	 width="119.592px" height="512px" viewBox="163.756 0 119.592 512" enable-background="new 163.756 0 119.592 512"
	 xml:space="preserve">
<g>
	<path d="M266.262,299.277V153.16c0-23.591-19.117-42.711-42.71-42.711c-23.591,0-42.711,19.121-42.711,42.711v146.119
		c-10.562,10.785-17.085,25.527-17.085,41.811c0,33.026,26.77,59.796,59.796,59.796c33.026,0,59.795-26.77,59.795-59.796
		C283.348,324.807,276.823,310.064,266.262,299.277z M223.551,383.801c-23.55,0-42.711-19.162-42.711-42.712
		c0-11.212,4.337-21.813,12.205-29.856l4.879-4.979v-6.975V153.16c0-14.131,11.496-25.627,25.627-25.627
		c14.133,0,25.627,11.496,25.627,25.627v146.119v6.975l4.879,4.979c7.867,8.043,12.204,18.646,12.204,29.856
		C266.262,364.639,247.102,383.801,223.551,383.801z"/>
	<path d="M223.551,315.396c-14.19,0-25.693,11.502-25.693,25.691c0,14.197,11.503,25.693,25.693,25.693
		c14.199,0,25.693-11.496,25.693-25.693C249.244,326.898,237.75,315.396,223.551,315.396z M223.551,349.699
		c-4.747,0-8.609-3.864-8.609-8.61c0-4.745,3.862-8.608,8.609-8.608c4.748,0,8.61,3.862,8.61,8.608S228.299,349.699,223.551,349.699
		z"/>
</g>
</svg>
