<?xml version="1.0" encoding="utf-8"?>
<!-- Generator: Adobe Illustrator 16.0.0, SVG Export Plug-In . SVG Version: 6.00 Build 0)  -->
<!DOCTYPE svg PUBLIC "-//W3C//DTD SVG 1.1//EN" "http://www.w3.org/Graphics/SVG/1.1/DTD/svg11.dtd">
<svg version="1.1" id="Layer_1" xmlns="http://www.w3.org/2000/svg" xmlns:xlink="http://www.w3.org/1999/xlink" x="0px" y="0px"
	 width="452.739px" height="512px" viewBox="-2.819 0 452.739 512" enable-background="new -2.819 0 452.739 512"
	 xml:space="preserve">
<g>
	<polygon points="272.693,337.93 284.773,325.85 227.822,268.891 170.863,325.85 182.942,337.93 219.28,301.591 219.28,409.102 
		236.365,409.102 236.365,301.591 	"/>
	<path d="M369.862,213.531c-13.631-63.6-70.105-111.3-137.761-111.3c-54.866,0-102.308,31.416-125.589,77.18
		c-2.27-0.15-4.529-0.342-6.832-0.342c-56.609,0-102.499,45.889-102.499,102.508c0,56.44,45.614,102.205,101.981,102.489v0.024
		h85.948v-17.084h-82.043l-3.821-0.024c-46.857-0.233-84.98-38.549-84.98-85.405c0-47.1,38.314-85.424,85.414-85.424
		c1.493,0,2.961,0.117,4.438,0.217l1.268,0.083l11.245,0.751l5.106-10.043c21.289-41.852,63.583-67.846,110.365-67.846
		c58.002,0,108.913,41.126,121.06,97.793l2.712,12.663l12.931,0.809c35.903,2.236,64.033,32.143,64.033,68.088
		c0,37.562-30.458,68.139-67.973,68.339c-0.424-0.024-0.793-0.042-1.167-0.058l-17.451,0.058h-75.713v17.084h92.797v-0.059
		c0.393,0.008,0.776,0.059,1.169,0.059c47.164,0,85.421-38.239,85.421-85.423C449.92,253.307,414.517,216.309,369.862,213.531z"/>
</g>
</svg>
