<?xml version="1.0" encoding="utf-8"?>
<!-- Generator: Adobe Illustrator 16.0.0, SVG Export Plug-In . SVG Version: 6.00 Build 0)  -->
<!DOCTYPE svg PUBLIC "-//W3C//DTD SVG 1.1//EN" "http://www.w3.org/Graphics/SVG/1.1/DTD/svg11.dtd">
<svg version="1.1" id="Layer_1" xmlns="http://www.w3.org/2000/svg" xmlns:xlink="http://www.w3.org/1999/xlink" x="0px" y="0px"
	 width="427.111px" height="512px" viewBox="9.996 0 427.111 512" enable-background="new 9.996 0 427.111 512"
	 xml:space="preserve">
<g>
	<path d="M215.009,319.8H9.996v17.085H215.01c18.836,0,34.17,15.325,34.17,34.17c0,18.844-15.334,34.168-34.17,34.168v17.086
		c28.313,0,51.252-22.94,51.252-51.254C266.262,342.75,243.322,319.8,215.009,319.8z"/>
	<path d="M364.499,302.716v-0.434c21.556-2.171,38.438-20.146,38.438-42.277c0-23.592-19.117-42.712-42.711-42.712v17.084
		c14.132,0,25.627,11.496,25.627,25.627s-11.495,25.628-25.627,25.628c-0.366,0-0.708-0.094-1.075-0.108h-41.534
		c0.033,0.041,0.075,0.074,0.101,0.108h-0.2v17.083L364.499,302.716L364.499,302.716z"/>
	<path d="M394.396,319.8H283.348v17.085h77.071c-0.025,0.035-0.059,0.068-0.093,0.108h32.994c0.365-0.017,0.709-0.108,1.074-0.108
		c14.133,0,25.628,11.496,25.628,25.627c0,14.133-11.495,25.627-25.628,25.627v17.084c23.593,0,42.713-19.119,42.713-42.711
		C437.107,338.922,417.987,319.8,394.396,319.8z"/>
	<path d="M119.626,302.716h129.552c28.312,0,51.254-22.948,51.254-51.254c0-28.313-22.941-51.253-51.254-51.253v17.084
		c18.836,0,34.168,15.325,34.168,34.169c0,18.847-15.332,34.171-34.168,34.171H141.666c-22.172-10.146-39.792-28.521-48.608-51.547
		c7.249,1.743,14.724,2.636,22.315,2.636c52.688,0,95.558-42.869,95.558-95.566c0-10.903-1.877-21.631-5.464-31.749
		c34.561,9.409,61.231,38.089,67.797,73.718h17.232c-8.232-53.281-54.139-94.098-109.73-94.098c-2.21,0-4.363,0.208-6.541,0.333
		c12.171,13.822,19.621,31.925,19.621,51.795c0,43.329-35.128,78.482-78.473,78.482c-16.984,0-32.685-5.473-45.531-14.648
		c1.385,32.466,16.759,61.204,40.143,80.644H9.996v17.083h102.606H119.626z"/>
</g>
</svg>
