<?xml version="1.0" encoding="utf-8"?>
<!-- Generator: Adobe Illustrator 16.0.0, SVG Export Plug-In . SVG Version: 6.00 Build 0)  -->
<!DOCTYPE svg PUBLIC "-//W3C//DTD SVG 1.1//EN" "http://www.w3.org/Graphics/SVG/1.1/DTD/svg11.dtd">
<svg version="1.1" id="Layer_1" xmlns="http://www.w3.org/2000/svg" xmlns:xlink="http://www.w3.org/1999/xlink" x="0px" y="0px"
	 width="495.897px" height="512px" viewBox="-24.398 0 495.897 512" enable-background="new -24.398 0 495.897 512"
	 xml:space="preserve">
<g>
	<path d="M398.992,289.102c-12.338-57.594-63.49-100.796-124.762-100.796c-18.662,0-36.373,4.013-52.34,11.22
		c-14.231-27.354-42.761-46.072-75.729-46.072c-47.174,0-85.422,38.239-85.422,85.414c0,21.014,7.675,40.167,20.271,55.033
		c-12.196,15.716-19.538,35.396-19.538,56.834c0,51.111,41.31,92.563,92.363,92.812v0.025h239.241v-0.051
		c0.357,0.01,0.7,0.051,1.06,0.051c42.721,0,77.363-34.628,77.363-77.364C471.501,325.123,439.435,291.621,398.992,289.102z
		 M146.162,170.536c26.411,0,49.201,15.149,60.58,37.114c-19.637,12.304-35.687,29.797-46.248,50.553
		c-2.061-0.135-4.104-0.309-6.19-0.309c-23.625,0-45.113,8.894-61.505,23.432c-9.327-11.67-14.974-26.394-14.974-42.46
		C77.825,201.193,108.481,170.536,146.162,170.536z M394.479,426.487c-0.324-0.025-0.658-0.033-1.001-0.043l-17.484-0.358v0.401
		H158.992l-5.072-0.025c-41.551-0.2-75.361-34.178-75.361-75.729c0-41.77,33.977-75.754,75.745-75.754
		c1.285,0,2.553,0.101,3.821,0.184l1.268,0.092l11.228,0.727l5.105-10.027c18.995-37.356,56.743-60.563,98.504-60.563
		c51.777,0,97.217,36.713,108.062,87.292l2.711,12.664l12.93,0.811c31.676,1.977,56.485,28.354,56.485,60.053
		C454.418,399.332,427.564,426.295,394.479,426.487z"/>
	<rect x="137.67" y="67.771" width="17.085" height="68.104"/>
	<rect x="-24.398" y="229.957" width="68.104" height="17.084"/>
	
		<rect x="15.971" y="134.123" transform="matrix(-0.7071 -0.7071 0.7071 -0.7071 -15.4734 278.9178)" width="68.117" height="17.082"/>
	
		<rect x="233.883" y="108.646" transform="matrix(-0.7071 -0.7071 0.7071 -0.7071 312.9376 415.0134)" width="17.081" height="68.094"/>
</g>
</svg>
