<?xml version="1.0" encoding="utf-8"?>
<!-- Generator: Adobe Illustrator 16.0.0, SVG Export Plug-In . SVG Version: 6.00 Build 0)  -->
<!DOCTYPE svg PUBLIC "-//W3C//DTD SVG 1.1//EN" "http://www.w3.org/Graphics/SVG/1.1/DTD/svg11.dtd">
<svg version="1.1" id="Layer_1" xmlns="http://www.w3.org/2000/svg" xmlns:xlink="http://www.w3.org/1999/xlink" x="0px" y="0px"
	 width="452.738px" height="512px" viewBox="-2.818 0 452.738 512" enable-background="new -2.818 0 452.738 512"
	 xml:space="preserve">
<path d="M232.104,131.821c58.002,0,108.904,41.126,121.051,97.793l2.72,12.671l12.931,0.801
	c35.903,2.236,64.033,32.143,64.033,68.088c0,37.557-30.458,68.137-67.973,68.338c-0.392-0.025-0.774-0.049-1.167-0.059
	l-17.451-0.309v0.367H104.185l-4.938-0.025c-46.857-0.233-84.98-38.549-84.98-85.404c0-47.101,38.314-85.424,85.414-85.424
	c1.493,0,2.961,0.118,4.43,0.218l1.276,0.091l11.245,0.742l5.106-10.044C143.034,157.814,185.32,131.821,232.104,131.821
	 M232.104,114.736c-54.867,0-102.309,31.416-125.59,77.181c-2.27-0.151-4.529-0.342-6.832-0.342
	c-56.609,0-102.499,45.89-102.499,102.508c0,56.44,45.614,102.205,101.981,102.489v0.024H363.33v-0.059
	c0.393,0.008,0.776,0.059,1.169,0.059c47.164,0,85.421-38.239,85.421-85.423c0-45.363-35.403-82.362-80.058-85.14
	C356.231,162.436,299.757,114.736,232.104,114.736L232.104,114.736z"/>
</svg>
