<?xml version="1.0" encoding="utf-8"?>
<!-- Generator: Adobe Illustrator 16.0.0, SVG Export Plug-In . SVG Version: 6.00 Build 0)  -->
<!DOCTYPE svg PUBLIC "-//W3C//DTD SVG 1.1//EN" "http://www.w3.org/Graphics/SVG/1.1/DTD/svg11.dtd">
<svg version="1.1" id="Layer_1" xmlns="http://www.w3.org/2000/svg" xmlns:xlink="http://www.w3.org/1999/xlink" x="0px" y="0px"
	 width="512.533px" height="512px" viewBox="-32.716 0 512.533 512" enable-background="new -32.716 0 512.533 512"
	 xml:space="preserve">
<g>
	<rect x="129.353" y="25.026" width="17.084" height="68.104"/>
	<rect x="-32.716" y="187.212" width="68.104" height="17.084"/>
	<rect x="7.652" y="91.378" transform="matrix(-0.7071 -0.7071 0.7071 -0.7071 0.5511 200.0676)" width="68.117" height="17.083"/>
	
		<rect x="225.544" y="65.909" transform="matrix(-0.7071 -0.7071 0.7071 -0.7071 328.9282 336.1581)" width="17.082" height="68.094"/>
	<path d="M257.721,383.801l0.041-0.058H150.675l-5.071-0.025c-41.552-0.209-75.362-34.179-75.362-75.729
		c0-41.77,33.977-75.754,75.745-75.754c1.285,0,2.553,0.1,3.821,0.184l1.268,0.091l11.228,0.726l5.098-10.027
		c19.003-37.354,56.75-60.563,98.511-60.563c50.537,0,94.94,35.012,107.12,83.713h17.644
		c-12.337-57.594-63.491-100.796-124.764-100.796c-18.661,0-36.371,4.012-52.329,11.22c-14.241-27.354-42.771-46.074-75.738-46.074
		c-47.174,0-85.422,38.241-85.422,85.415c0,21.014,7.683,40.167,20.271,55.032C60.49,266.87,53.157,286.55,53.157,307.988
		c0,51.111,41.31,92.562,92.363,92.812v0.025h112.201v0.059c18.836,0,34.168,15.325,34.168,34.17s-15.332,34.168-34.168,34.168
		v17.084c28.312,0,51.254-22.939,51.254-51.252C308.975,406.749,286.032,383.801,257.721,383.801z M137.845,127.792
		c26.402,0,49.201,15.149,60.572,37.113c-19.629,12.296-35.688,29.798-46.24,50.553c-2.06-0.133-4.104-0.309-6.19-0.309
		c-23.625,0-45.122,8.9-61.506,23.432c-9.326-11.679-14.974-26.394-14.974-42.46C69.507,158.448,100.165,127.792,137.845,127.792z"
		/>
	<path d="M291.889,349.631h-85.322v17.086h85.322c28.313,0,51.254-22.949,51.254-51.254c0-28.312-22.939-51.254-51.254-51.254
		v17.084c18.838,0,34.169,15.326,34.169,34.17C326.058,334.309,310.727,349.631,291.889,349.631z"/>
	<path d="M360.428,349.631h-0.201v17.086h46.983v-0.435c21.556-2.169,38.44-20.146,38.44-42.277
		c0-23.59-19.121-42.712-42.713-42.712v17.086c14.132,0,25.628,11.495,25.628,25.626c0,14.132-11.496,25.626-25.628,25.626
		c-0.365,0-0.71-0.092-1.074-0.107h-41.537C360.352,349.564,360.402,349.598,360.428,349.631z"/>
	<path d="M437.107,383.801H326.057v17.084h77.072c-0.032,0.033-0.066,0.066-0.091,0.109h32.991c0.369-0.019,0.71-0.109,1.077-0.109
		c14.131,0,25.626,11.496,25.626,25.628c0,14.129-11.495,25.626-25.626,25.626v17.084c23.591,0,42.711-19.119,42.711-42.71
		C479.818,402.92,460.698,383.801,437.107,383.801z"/>
	<rect x="155.213" y="349.631" width="34.169" height="17.086"/>
</g>
</svg>
