<?xml version="1.0" encoding="utf-8"?>
<!-- Generator: Adobe Illustrator 16.0.0, SVG Export Plug-In . SVG Version: 6.00 Build 0)  -->
<!DOCTYPE svg PUBLIC "-//W3C//DTD SVG 1.1//EN" "http://www.w3.org/Graphics/SVG/1.1/DTD/svg11.dtd">
<svg version="1.1" id="Layer_1" xmlns="http://www.w3.org/2000/svg" xmlns:xlink="http://www.w3.org/1999/xlink" x="0px" y="0px"
	 width="222.098px" height="512px" viewBox="112.502 0 222.098 512" enable-background="new 112.502 0 222.098 512"
	 xml:space="preserve">
<g>
	<path d="M223.551,144.618c-61.331,0-111.049,49.718-111.049,111.049c0,61.33,49.719,111.05,111.049,111.05
		c61.33,0,111.049-49.72,111.049-111.05C334.6,194.336,284.882,144.618,223.551,144.618z M223.551,349.631
		c-51.812,0-93.965-42.145-93.965-93.964c0-51.805,42.152-93.965,93.965-93.965c51.812,0,93.965,42.161,93.965,93.965
		C317.517,307.486,275.363,349.631,223.551,349.631z"/>
	<path d="M237.124,233.627c-3.987-2.553-8.692-4.071-13.781-4.071c-14.165,0-25.627,11.462-25.627,25.626
		c0,14.149,11.462,25.628,25.627,25.628c4.755,0,9.159-1.387,12.979-3.653v0.116l37.771-22.091l-36.971-21.605L237.124,233.627
		L237.124,233.627z M227.598,262.458c-1.402,0.834-2.836,1.269-4.253,1.269c-4.713,0-8.543-3.838-8.543-8.543
		c0-4.721,3.83-8.542,8.543-8.542c1.609,0,3.144,0.45,4.572,1.368l11.578,7.392L227.598,262.458z"/>
</g>
</svg>
