<?xml version="1.0" encoding="utf-8"?>
<!-- Generator: Adobe Illustrator 16.0.0, SVG Export Plug-In . SVG Version: 6.00 Build 0)  -->
<!DOCTYPE svg PUBLIC "-//W3C//DTD SVG 1.1//EN" "http://www.w3.org/Graphics/SVG/1.1/DTD/svg11.dtd">
<svg version="1.1" id="Layer_1" xmlns="http://www.w3.org/2000/svg" xmlns:xlink="http://www.w3.org/1999/xlink" x="0px" y="0px"
	 width="222.097px" height="512px" viewBox="112.502 0 222.097 512" enable-background="new 112.502 0 222.097 512"
	 xml:space="preserve">
<g>
	<path d="M223.551,144.618c-61.322,0-111.049,49.718-111.049,111.049c0,61.33,49.727,111.05,111.049,111.05
		c61.322,0,111.048-49.72,111.048-111.05C334.6,194.336,284.873,144.618,223.551,144.618z M223.551,349.631
		c-51.812,0-93.965-42.145-93.965-93.964c0-51.805,42.152-93.965,93.965-93.965c51.812,0,93.965,42.161,93.965,93.965
		C317.517,307.486,275.363,349.631,223.551,349.631z"/>
	<path d="M223.201,229.556c-4.755,0-9.159,1.385-12.979,3.654v-0.117l-37.773,22.089l36.972,21.606v-0.05
		c3.987,2.553,8.692,4.072,13.781,4.072c14.166,0,25.627-11.463,25.627-25.628C248.828,241.035,237.366,229.556,223.201,229.556z
		 M223.201,263.727c-1.609,0-3.145-0.468-4.571-1.385l-11.579-7.393l11.896-7.058c1.402-0.834,2.836-1.251,4.254-1.251
		c4.714,0,8.542,3.82,8.542,8.542C231.743,259.889,227.915,263.727,223.201,263.727z"/>
</g>
</svg>
