<?xml version="1.0" encoding="utf-8"?>
<!-- Generator: Adobe Illustrator 16.0.0, SVG Export Plug-In . SVG Version: 6.00 Build 0)  -->
<!DOCTYPE svg PUBLIC "-//W3C//DTD SVG 1.1//EN" "http://www.w3.org/Graphics/SVG/1.1/DTD/svg11.dtd">
<svg version="1.1" id="Layer_1" xmlns="http://www.w3.org/2000/svg" xmlns:xlink="http://www.w3.org/1999/xlink" x="0px" y="0px"
	 width="222.031px" height="512px" viewBox="112.536 0 222.031 512" enable-background="new 112.536 0 222.031 512"
	 xml:space="preserve">
<g>
	<path d="M146.705,127.533c-18.87,0-34.169,15.3-34.169,34.169c0,18.878,15.299,34.169,34.169,34.169
		c18.886,0,34.169-15.291,34.169-34.169C180.874,142.833,165.591,127.533,146.705,127.533z M146.705,178.787
		c-9.418,0-17.084-7.667-17.084-17.085s7.666-17.084,17.084-17.084s17.084,7.666,17.084,17.084S156.123,178.787,146.705,178.787z"/>
	<path d="M266.295,366.717c-37.671,0-68.329-30.658-68.329-68.33v-34.186c0-37.673,30.658-68.331,68.329-68.331
		c23.191,0,43.697,11.638,56.059,29.355l12.214-12.212c-15.582-20.748-40.315-34.228-68.271-34.228
		c-47.173,0-85.413,38.248-85.413,85.415v34.187c0,47.165,38.24,85.413,85.413,85.413c27.956,0,52.689-13.489,68.271-34.235
		l-12.214-12.213C310.001,355.07,289.494,366.717,266.295,366.717z"/>
</g>
</svg>
