<?xml version="1.0" encoding="utf-8"?>
<!-- Generator: Adobe Illustrator 16.0.0, SVG Export Plug-In . SVG Version: 6.00 Build 0)  -->
<!DOCTYPE svg PUBLIC "-//W3C//DTD SVG 1.1//EN" "http://www.w3.org/Graphics/SVG/1.1/DTD/svg11.dtd">
<svg version="1.1" id="Layer_1" xmlns="http://www.w3.org/2000/svg" xmlns:xlink="http://www.w3.org/1999/xlink" x="0px" y="0px"
	 width="203.946px" height="512px" viewBox="121.578 0 203.946 512" enable-background="new 121.578 0 203.946 512"
	 xml:space="preserve">
<g>
	<path d="M155.747,127.016c-18.87,0-34.169,15.299-34.169,34.169c0,18.878,15.299,34.169,34.169,34.169
		c18.887,0,34.169-15.291,34.169-34.169C189.916,142.315,174.634,127.016,155.747,127.016z M155.747,178.269
		c-9.418,0-17.084-7.666-17.084-17.084s7.667-17.084,17.084-17.084c9.418,0,17.085,7.666,17.085,17.084
		S165.166,178.269,155.747,178.269z"/>
	<polygon points="325.524,196.388 325.524,179.304 223.018,179.304 205.933,179.304 205.933,384.316 223.018,384.316 
		223.018,281.812 291.355,281.812 291.355,264.729 223.018,264.729 223.018,196.388 	"/>
</g>
</svg>
