<?xml version="1.0" encoding="utf-8"?>
<!-- Generator: Adobe Illustrator 16.0.0, SVG Export Plug-In . SVG Version: 6.00 Build 0)  -->
<!DOCTYPE svg PUBLIC "-//W3C//DTD SVG 1.1//EN" "http://www.w3.org/Graphics/SVG/1.1/DTD/svg11.dtd">
<svg version="1.1" id="Layer_1" xmlns="http://www.w3.org/2000/svg" xmlns:xlink="http://www.w3.org/1999/xlink" x="0px" y="0px"
	 width="427.114px" height="512px" viewBox="9.996 0 427.114 512" enable-background="new 9.996 0 427.114 512"
	 xml:space="preserve">
<g>
	<rect x="223.551" y="332.372" width="17.085" height="59.796"/>
	<rect x="291.889" y="298.203" width="17.086" height="59.796"/>
	<rect x="155.213" y="298.203" width="17.085" height="59.796"/>
	<rect x="223.551" y="417.794" width="17.085" height="59.796"/>
	<rect x="291.889" y="383.625" width="17.086" height="59.796"/>
	<rect x="155.213" y="383.625" width="17.085" height="59.796"/>
	<path d="M364.598,203.528c-12.337-57.593-63.49-100.796-124.763-100.796c-15.366,0-30.09,2.736-43.721,7.725
		c-8.108-43.637-46.165-76.713-92.154-76.713c-3.529,0-6.999,0.234-10.436,0.609c6.356,9.502,10.069,20.914,10.069,33.193
		c0,33.018-26.769,59.796-59.795,59.796c-12.288,0-23.691-3.712-33.193-10.069c-0.375,3.429-0.609,6.907-0.609,10.436
		c0,31.708,15.758,59.687,39.816,76.705c-14.123,16.292-22.731,37.489-22.731,60.747c0,51.112,41.31,92.563,92.363,92.815V358
		h10.144v-17.085h-6.156l-3.904-0.024c-41.552-0.199-75.362-34.178-75.362-75.729c0-41.768,33.977-75.754,75.746-75.754
		c1.285,0,2.552,0.101,3.82,0.192l1.269,0.083l11.228,0.725l5.097-10.035c19.003-37.348,56.751-60.555,98.511-60.555
		c51.778,0,97.228,36.713,108.054,87.291l2.721,12.671l12.931,0.801c31.675,1.968,56.483,28.354,56.483,60.056
		c0,33.125-26.854,60.095-59.938,60.278c-0.358-0.025-0.675-0.041-1.001-0.041l-17.484,0.041h-7v17.085h24.084v-0.05
		c0.359,0.008,0.7,0.05,1.061,0.05c42.719,0,77.364-34.629,77.364-77.363C437.107,239.549,405.041,206.048,364.598,203.528z
		 M126.1,172.63c-2.061-0.134-4.104-0.309-6.189-0.309c-21.673,0-41.561,7.483-57.36,19.938
		c-17.185-11.053-29.789-28.647-33.96-49.343c4.971,1.001,10.061,1.51,15.208,1.51c42.394,0,76.88-34.486,76.88-76.881
		c0-5.147-0.509-10.235-1.51-15.207c31.892,6.432,56.626,32.667,60.93,65.259C156.94,129.935,138.021,149.197,126.1,172.63z"/>
</g>
</svg>
