<?xml version="1.0" encoding="utf-8"?>
<!-- Generator: Adobe Illustrator 16.0.0, SVG Export Plug-In . SVG Version: 6.00 Build 0)  -->
<!DOCTYPE svg PUBLIC "-//W3C//DTD SVG 1.1//EN" "http://www.w3.org/Graphics/SVG/1.1/DTD/svg11.dtd">
<svg version="1.1" id="Layer_1" xmlns="http://www.w3.org/2000/svg" xmlns:xlink="http://www.w3.org/1999/xlink" x="0px" y="0px"
	 width="478.365px" height="512px" viewBox="-15.632 0 478.365 512" enable-background="new -15.632 0 478.365 512"
	 xml:space="preserve">
<g>
	<rect x="-15.632" y="302.65" width="478.365" height="17.082"/>
	<rect x="18.537" y="353.902" width="427.113" height="17.086"/>
	<rect x="69.791" y="405.155" width="307.521" height="17.085"/>
	<rect x="1.453" y="251.396" width="444.197" height="17.084"/>
	<path d="M102.883,183.016c1.494,0,2.962,0.117,4.43,0.217l1.277,0.083l11.245,0.751l5.105-10.044
		c21.297-41.852,63.583-67.845,110.365-67.845c58.002,0,108.913,41.126,121.051,97.793l2.72,12.664l12.932,0.809
		c10.312,0.642,19.944,3.628,28.495,8.325h28.071c-14.332-14.548-33.802-24.025-55.507-25.376
		c-13.632-63.6-70.107-111.3-137.762-111.3c-54.866,0-102.307,31.416-125.59,77.181c-2.269-0.15-4.53-0.342-6.833-0.342
		c-41.368,0-76.913,24.551-93.113,59.837h19.229C43.789,200.259,71.334,183.016,102.883,183.016z"/>
</g>
</svg>
