<?xml version="1.0" encoding="utf-8"?>
<!-- Generator: Adobe Illustrator 16.0.0, SVG Export Plug-In . SVG Version: 6.00 Build 0)  -->
<!DOCTYPE svg PUBLIC "-//W3C//DTD SVG 1.1//EN" "http://www.w3.org/Graphics/SVG/1.1/DTD/svg11.dtd">
<svg version="1.1" id="Layer_1" xmlns="http://www.w3.org/2000/svg" xmlns:xlink="http://www.w3.org/1999/xlink" x="0px" y="0px"
	 width="427.114px" height="512px" viewBox="9.996 0 427.114 512" enable-background="new 9.996 0 427.114 512"
	 xml:space="preserve">
<g>
	<path d="M364.598,195.028c-12.337-57.593-63.49-100.796-124.763-100.796c-15.366,0-30.09,2.736-43.721,7.725
		c-8.108-43.637-46.165-76.713-92.154-76.713c-3.529,0-6.999,0.233-10.436,0.608c6.356,9.502,10.069,20.914,10.069,33.193
		c0,33.018-26.769,59.796-59.795,59.796c-12.288,0-23.691-3.712-33.193-10.069c-0.375,3.428-0.609,6.907-0.609,10.435
		c0,31.708,15.758,59.688,39.816,76.705c-14.123,16.292-22.731,37.49-22.731,60.748c0,51.111,41.31,92.562,92.363,92.812v0.024
		h10.144v-17.083h-6.156l-3.904-0.025c-41.552-0.199-75.362-34.179-75.362-75.729c0-41.77,33.977-75.755,75.746-75.755
		c1.285,0,2.552,0.1,3.82,0.192l1.269,0.083l11.228,0.726l5.097-10.036c19.003-37.347,56.751-60.555,98.511-60.555
		c51.778,0,97.228,36.713,108.054,87.291l2.721,12.672l12.931,0.8c31.675,1.969,56.483,28.355,56.483,60.055
		c0,33.126-26.854,60.096-59.938,60.281c-0.358-0.025-0.675-0.043-1.001-0.043l-17.484,0.043h-7v17.083h24.084v-0.05
		c0.359,0.008,0.7,0.05,1.061,0.05c42.719,0,77.364-34.627,77.364-77.364C437.107,231.049,405.041,197.547,364.598,195.028z
		 M126.1,164.129c-2.061-0.133-4.104-0.308-6.189-0.308c-21.673,0-41.561,7.483-57.36,19.937
		c-17.185-11.052-29.789-28.646-33.96-49.342c4.971,1.001,10.061,1.509,15.208,1.509c42.394,0,76.88-34.486,76.88-76.88
		c0-5.147-0.509-10.236-1.51-15.207c31.892,6.431,56.626,32.667,60.93,65.259C156.94,121.435,138.021,140.696,126.1,164.129z"/>
	<path d="M163.755,409.219c-7.074,0-12.813,5.739-12.813,12.812c0,7.075,5.739,12.813,12.813,12.813
		c7.074,0,12.813-5.738,12.813-12.813C176.569,414.958,170.83,409.219,163.755,409.219z"/>
	<path d="M232.094,460.472c-7.074,0-12.813,5.74-12.813,12.813c0,7.074,5.739,12.812,12.813,12.812s12.813-5.738,12.813-12.812
		C244.907,466.212,239.168,460.472,232.094,460.472z"/>
	<path d="M300.434,426.303c-7.076,0-12.814,5.739-12.814,12.814c0,7.073,5.738,12.812,12.814,12.812
		c7.072,0,12.812-5.738,12.812-12.812C313.245,432.042,307.506,426.303,300.434,426.303z"/>
	<rect x="155.213" y="281.293" width="17.085" height="102.299"/>
	<polygon points="240.637,434.545 240.637,417.969 240.637,315.463 223.551,315.463 223.551,417.969 223.551,434.545 
		223.551,434.846 240.637,434.846 	"/>
	<polygon points="308.975,398.774 308.975,383.801 308.975,281.293 291.889,281.293 291.889,383.801 291.889,398.774 
		291.889,400.677 308.975,400.677 	"/>
</g>
</svg>
