<?xml version="1.0" encoding="utf-8"?>
<!-- Generator: Adobe Illustrator 16.0.0, SVG Export Plug-In . SVG Version: 6.00 Build 0)  -->
<!DOCTYPE svg PUBLIC "-//W3C//DTD SVG 1.1//EN" "http://www.w3.org/Graphics/SVG/1.1/DTD/svg11.dtd">
<svg version="1.1" id="Layer_1" xmlns="http://www.w3.org/2000/svg" xmlns:xlink="http://www.w3.org/1999/xlink" x="0px" y="0px"
	 width="495.452px" height="512px" viewBox="-24.174 0 495.452 512" enable-background="new -24.174 0 495.452 512"
	 xml:space="preserve">
<g>
	<rect x="138.129" width="17.084" height="68.104"/>
	<rect x="-24.174" y="161.568" width="68.104" height="17.084"/>
	
		<rect x="15.745" y="65.326" transform="matrix(-0.7071 -0.7071 0.7071 -0.7071 32.7881 161.3161)" width="68.117" height="17.083"/>
	
		<rect x="233.649" y="39.851" transform="matrix(-0.7071 -0.7071 0.7071 -0.7071 361.1866 297.4086)" width="17.083" height="68.094"/>
	<path d="M398.768,220.304c-12.339-57.593-63.49-100.796-124.765-100.796c-18.661,0-36.369,4.013-52.329,11.22
		c-14.24-27.353-42.77-46.073-75.737-46.073c-47.174,0-85.422,38.24-85.422,85.414c0,21.014,7.683,40.167,20.271,55.033
		c-12.205,15.716-19.537,35.396-19.537,56.833c0,51.111,41.31,92.564,92.363,92.813v0.024h10.144v-17.084H157.6l-3.904-0.024
		c-41.552-0.2-75.362-34.179-75.362-75.729c0-41.769,33.977-75.753,75.746-75.753c1.284,0,2.552,0.1,3.82,0.192l1.269,0.083
		l11.228,0.726l5.097-10.036c19.003-37.347,56.751-60.555,98.51-60.555c51.781,0,97.229,36.713,108.056,87.291l2.721,12.672
		l12.929,0.8c31.676,1.969,56.484,28.355,56.484,60.056c0,33.126-26.854,60.096-59.938,60.278c-0.359-0.024-0.676-0.041-1.001-0.041
		l-17.485,0.041h-6.999v17.084h24.085v-0.049c0.357,0.008,0.699,0.049,1.059,0.049c42.721,0,77.364-34.627,77.364-77.362
		C471.276,256.326,439.209,222.824,398.768,220.304z M160.269,189.405c-2.061-0.133-4.104-0.308-6.189-0.308
		c-23.625,0-45.122,8.893-61.506,23.433c-9.327-11.671-14.975-26.395-14.975-42.461c0-37.672,30.657-68.33,68.338-68.33
		c26.402,0,49.201,15.149,60.571,37.113C186.88,151.158,170.821,168.65,160.269,189.405z"/>
	<path d="M197.841,434.463c-7.074,0-12.813,5.737-12.813,12.812c0,7.072,5.739,12.812,12.813,12.812
		c7.074,0,12.813-5.74,12.813-12.812C210.654,440.2,204.915,434.463,197.841,434.463z"/>
	<path d="M266.18,485.714c-7.074,0-12.813,5.74-12.813,12.815c0,7.073,5.739,12.812,12.813,12.812
		c7.073,0,12.812-5.739,12.812-12.812C278.992,491.454,273.253,485.714,266.18,485.714z"/>
	<path d="M334.518,451.547c-7.074,0-12.813,5.739-12.813,12.812c0,7.072,5.739,12.812,12.813,12.812
		c7.072,0,12.812-5.739,12.812-12.812C347.33,457.286,341.59,451.547,334.518,451.547z"/>
	<rect x="189.299" y="306.537" width="17.084" height="102.297"/>
	<polygon points="274.723,459.789 274.723,443.213 274.723,340.706 257.637,340.706 257.637,443.213 257.637,459.789 
		257.637,460.089 274.723,460.089 	"/>
	<polygon points="343.059,424.019 343.059,409.044 343.059,306.537 325.975,306.537 325.975,409.044 325.975,424.019 
		325.975,425.919 343.059,425.919 	"/>
</g>
</svg>
