<?xml version="1.0" encoding="utf-8"?>
<!-- Generator: Adobe Illustrator 16.0.0, SVG Export Plug-In . SVG Version: 6.00 Build 0)  -->
<!DOCTYPE svg PUBLIC "-//W3C//DTD SVG 1.1//EN" "http://www.w3.org/Graphics/SVG/1.1/DTD/svg11.dtd">
<svg version="1.1" id="Layer_1" xmlns="http://www.w3.org/2000/svg" xmlns:xlink="http://www.w3.org/1999/xlink" x="0px" y="0px"
	 width="427.113px" height="512px" viewBox="9.996 0 427.113 512" enable-background="new 9.996 0 427.113 512"
	 xml:space="preserve">
<g>
	<path d="M364.598,216.333c-12.337-57.593-63.49-100.796-124.763-100.796c-15.366,0-30.09,2.736-43.721,7.725
		c-8.108-43.637-46.165-76.713-92.154-76.713c-3.529,0-6.999,0.234-10.436,0.609c6.356,9.502,10.069,20.914,10.069,33.193
		c0,33.018-26.769,59.795-59.795,59.795c-12.288,0-23.691-3.712-33.193-10.069c-0.375,3.429-0.609,6.907-0.609,10.436
		c0,31.708,15.758,59.687,39.816,76.705C35.688,233.51,27.08,254.707,27.08,277.965c0,51.111,41.31,92.562,92.363,92.814v0.022
		h1.602v-17.081l-1.518-0.027c-41.552-0.198-75.362-34.176-75.362-75.729c0-41.769,33.977-75.754,75.746-75.754
		c1.285,0,2.552,0.1,3.82,0.191l1.269,0.084l11.228,0.726l5.097-10.036c19.003-37.347,56.751-60.554,98.511-60.554
		c51.778,0,97.227,36.713,108.054,87.291l2.721,12.671l12.931,0.801c31.675,1.968,56.483,28.354,56.483,60.055
		c0,33.127-26.854,60.097-59.938,60.281c-0.357-0.027-0.675-0.043-1.001-0.043l-7.399,0.043v17.082h6.999v-0.048
		c0.359,0.007,0.7,0.048,1.061,0.048c42.719,0,77.364-34.627,77.364-77.363C437.107,252.354,405.041,218.853,364.598,216.333z
		 M126.1,185.435c-2.061-0.133-4.104-0.308-6.189-0.308c-21.673,0-41.561,7.483-57.36,19.938
		c-17.185-11.053-29.789-28.646-33.96-49.343c4.971,1.001,10.061,1.51,15.208,1.51c42.394,0,76.88-34.486,76.88-76.88
		c0-5.147-0.509-10.235-1.51-15.208c31.892,6.432,56.626,32.667,60.93,65.269C156.94,142.74,138.021,162.01,126.1,185.435z"/>
	<polygon points="120.928,328.009 175.726,406.259 189.708,396.456 134.917,318.2 	"/>
	<polygon points="274.473,328.009 329.27,406.259 343.251,396.456 288.461,318.2 	"/>
	<polygon points="247.709,396.456 262.825,396.456 266.504,396.456 283.673,396.456 228.882,318.2 214.893,328.001 250.863,379.37 
		235.738,379.37 214.893,379.37 225.753,394.886 235.255,408.459 274.688,464.794 288.688,455 249.253,398.656 	"/>
</g>
</svg>
