<?xml version="1.0" encoding="utf-8"?>
<!-- Generator: Adobe Illustrator 16.0.0, SVG Export Plug-In . SVG Version: 6.00 Build 0)  -->
<!DOCTYPE svg PUBLIC "-//W3C//DTD SVG 1.1//EN" "http://www.w3.org/Graphics/SVG/1.1/DTD/svg11.dtd">
<svg version="1.1" id="Layer_1" xmlns="http://www.w3.org/2000/svg" xmlns:xlink="http://www.w3.org/1999/xlink" x="0px" y="0px"
	 width="452.738px" height="512px" viewBox="-2.819 0 452.738 512" enable-background="new -2.819 0 452.738 512"
	 xml:space="preserve">
<g>
	<path d="M369.862,179.037c-13.631-63.6-70.105-111.299-137.761-111.299c-54.866,0-102.308,31.416-125.589,77.18
		c-2.27-0.15-4.529-0.341-6.832-0.341c-56.609,0-102.499,45.889-102.499,102.506c0,56.442,45.614,102.208,101.981,102.49v0.024
		h9.068v-17.084h-5.164l-3.821-0.025c-46.857-0.232-84.98-38.547-84.98-85.405c0-47.098,38.314-85.422,85.414-85.422
		c1.493,0,2.961,0.117,4.438,0.217l1.268,0.084l11.245,0.75l5.106-10.044c21.289-41.852,63.583-67.846,110.366-67.846
		c58.002,0,108.912,41.126,121.059,97.794l2.712,12.663l12.931,0.81c35.903,2.235,64.033,32.141,64.033,68.088
		c0,37.563-30.458,68.138-67.973,68.339c-0.424-0.025-0.793-0.041-1.167-0.059l-7.741,0.059V349.6h7.374v-0.06
		c0.393,0.01,0.776,0.06,1.169,0.06c47.164,0,85.421-38.24,85.421-85.423C449.92,218.811,414.517,181.814,369.862,179.037z"/>
	<polygon points="116.773,306.812 171.572,385.061 185.554,375.26 130.763,297.002 	"/>
	<polygon points="270.316,306.812 325.115,385.061 339.097,375.26 284.307,297.002 	"/>
	<polygon points="243.557,375.26 258.672,375.26 262.35,375.26 279.518,375.26 224.729,297.002 210.738,306.805 246.708,358.173 
		231.585,358.173 210.738,358.173 221.6,373.689 231.102,387.262 270.533,443.596 284.531,433.803 245.1,377.462 	"/>
</g>
</svg>
