<?xml version="1.0" encoding="utf-8"?>
<!-- Generator: Adobe Illustrator 16.0.0, SVG Export Plug-In . SVG Version: 6.00 Build 0)  -->
<!DOCTYPE svg PUBLIC "-//W3C//DTD SVG 1.1//EN" "http://www.w3.org/Graphics/SVG/1.1/DTD/svg11.dtd">
<svg version="1.1" id="Layer_1" xmlns="http://www.w3.org/2000/svg" xmlns:xlink="http://www.w3.org/1999/xlink" x="0px" y="0px"
	 width="495.452px" height="512px" viewBox="-24.174 0 495.452 512" enable-background="new -24.174 0 495.452 512"
	 xml:space="preserve">
<g>
	<rect x="138.129" y="21.289" width="17.084" height="68.104"/>
	<rect x="-24.174" y="182.857" width="68.104" height="17.085"/>
	<rect x="15.746" y="86.616" transform="matrix(-0.7071 -0.7071 0.7071 -0.7071 17.7349 197.66)" width="68.117" height="17.083"/>
	
		<rect x="233.645" y="61.141" transform="matrix(-0.7071 -0.7071 0.7071 -0.7071 346.134 333.7458)" width="17.082" height="68.095"/>
	<path d="M398.768,241.593C386.429,184,335.276,140.797,274.003,140.797c-18.661,0-36.369,4.013-52.329,11.22
		c-14.24-27.354-42.77-46.073-75.737-46.073c-47.174,0-85.422,38.24-85.422,85.415c0,21.013,7.683,40.166,20.271,55.032
		c-12.205,15.718-19.537,35.396-19.537,56.833c0,51.111,41.31,92.562,92.363,92.814v0.023h1.602v-17.084l-1.518-0.025
		c-41.552-0.2-75.362-34.178-75.362-75.729c0-41.769,33.977-75.754,75.746-75.754c1.284,0,2.552,0.1,3.82,0.192l1.269,0.083
		l11.228,0.726l5.097-10.036c19.003-37.347,56.751-60.554,98.51-60.554c51.781,0,97.229,36.713,108.056,87.291l2.721,12.674
		l12.929,0.799c31.676,1.971,56.484,28.354,56.484,60.057c0,33.126-26.854,60.095-59.938,60.277
		c-0.359-0.024-0.676-0.041-1.001-0.041l-7.399,0.041v17.084h7v-0.048c0.357,0.009,0.699,0.048,1.059,0.048
		c42.721,0,77.364-34.627,77.364-77.361C471.276,277.614,439.209,244.112,398.768,241.593z M160.269,210.694
		c-2.061-0.134-4.104-0.309-6.189-0.309c-23.625,0-45.122,8.901-61.506,23.433c-9.327-11.678-14.975-26.394-14.975-42.46
		c0-37.673,30.657-68.33,68.338-68.33c26.402,0,49.201,15.149,60.571,37.113C186.88,172.438,170.821,189.939,160.269,210.694z"/>
	<polygon points="155.105,353.27 209.904,431.519 223.885,421.716 169.095,343.46 	"/>
	<polygon points="308.648,353.27 363.447,431.519 377.429,421.716 322.638,343.46 	"/>
	<polygon points="281.889,421.716 297.002,421.716 300.682,421.716 317.849,421.716 263.061,343.46 249.068,353.261 285.04,404.63 
		269.916,404.63 249.068,404.63 259.932,420.146 269.434,433.719 308.865,490.054 322.863,480.26 283.43,423.916 	"/>
</g>
</svg>
