<?xml version="1.0" encoding="utf-8"?>
<!-- Generator: Adobe Illustrator 16.0.0, SVG Export Plug-In . SVG Version: 6.00 Build 0)  -->
<!DOCTYPE svg PUBLIC "-//W3C//DTD SVG 1.1//EN" "http://www.w3.org/Graphics/SVG/1.1/DTD/svg11.dtd">
<svg version="1.1" id="Layer_1" xmlns="http://www.w3.org/2000/svg" xmlns:xlink="http://www.w3.org/1999/xlink" x="0px" y="0px"
	 width="452.738px" height="512px" viewBox="-2.819 0 452.738 512" enable-background="new -2.819 0 452.738 512"
	 xml:space="preserve">
<g>
	<path d="M369.862,183.308c-13.631-63.6-70.105-111.299-137.761-111.299c-54.866,0-102.308,31.416-125.589,77.18
		c-2.27-0.15-4.529-0.342-6.832-0.342c-56.609,0-102.499,45.89-102.499,102.507c0,56.442,45.614,102.207,101.981,102.49v0.025
		h51.779v-17.085h-47.875l-3.821-0.025c-46.857-0.233-84.98-38.548-84.98-85.405c0-47.099,38.314-85.422,85.414-85.422
		c1.493,0,2.961,0.117,4.438,0.217l1.268,0.084l11.245,0.75l5.106-10.043c21.289-41.852,63.583-67.846,110.366-67.846
		c58.002,0,108.912,41.126,121.059,97.793l2.712,12.663l12.931,0.81c35.903,2.236,64.033,32.142,64.033,68.088
		c0,37.563-30.458,68.137-67.973,68.337c-0.424-0.025-0.793-0.041-1.167-0.059l-43.078,0.059h1.167v17.085h41.544v-0.06
		c0.393,0.01,0.776,0.06,1.169,0.06c47.164,0,85.421-38.24,85.421-85.422C449.92,223.083,414.517,186.085,369.862,183.308z"/>
	<polygon points="235.014,353.902 250.129,353.902 253.809,353.902 270.975,353.902 216.186,275.646 202.195,285.447 
		238.167,336.818 223.042,336.818 202.195,336.818 213.057,352.334 222.559,365.907 273.62,439.326 287.618,429.531 
		236.557,356.104 	"/>
</g>
</svg>
