<?xml version="1.0" encoding="utf-8"?>
<!-- Generator: Adobe Illustrator 16.0.0, SVG Export Plug-In . SVG Version: 6.00 Build 0)  -->
<!DOCTYPE svg PUBLIC "-//W3C//DTD SVG 1.1//EN" "http://www.w3.org/Graphics/SVG/1.1/DTD/svg11.dtd">
<svg version="1.1" id="Layer_1" xmlns="http://www.w3.org/2000/svg" xmlns:xlink="http://www.w3.org/1999/xlink" x="0px" y="0px"
	 width="495.452px" height="512px" viewBox="-24.174 0 495.452 512" enable-background="new -24.174 0 495.452 512"
	 xml:space="preserve">
<g>
	<rect x="138.129" y="25.543" width="17.084" height="68.104"/>
	<rect x="-24.174" y="187.111" width="68.104" height="17.085"/>
	
		<rect x="15.746" y="90.869" transform="matrix(-0.7071 -0.7071 0.7071 -0.7071 14.7269 204.9219)" width="68.117" height="17.083"/>
	
		<rect x="233.644" y="65.396" transform="matrix(-0.7071 -0.7071 0.7071 -0.7071 343.1242 341.0089)" width="17.082" height="68.095"/>
	<path d="M398.768,245.848c-12.339-57.593-63.49-100.796-124.765-100.796c-18.661,0-36.369,4.013-52.337,11.22
		c-14.231-27.354-42.761-46.073-75.729-46.073c-47.174,0-85.422,38.24-85.422,85.415c0,21.013,7.675,40.166,20.271,55.032
		c-12.196,15.717-19.537,35.395-19.537,56.834c0,51.112,41.31,92.563,92.363,92.812v0.025h35.771v-17.084H157.6l-3.904-0.024
		c-41.552-0.2-75.362-34.178-75.362-75.729c0-41.769,33.977-75.753,75.746-75.753c1.284,0,2.552,0.1,3.82,0.192l1.269,0.083
		l11.228,0.726l5.097-10.036c19.003-37.347,56.751-60.554,98.51-60.554c51.781,0,97.229,36.713,108.056,87.291l2.721,12.672
		l12.929,0.801c31.676,1.969,56.484,28.354,56.484,60.055c0,33.125-26.854,60.096-59.938,60.279
		c-0.36-0.024-0.676-0.043-1.001-0.043l-17.485,0.043h-32.626v17.084h49.711v-0.05c0.358,0.008,0.7,0.05,1.06,0.05
		c42.721,0,77.364-34.627,77.364-77.363C471.276,281.87,439.209,248.367,398.768,245.848z M160.269,214.949
		c-2.061-0.133-4.104-0.309-6.189-0.309c-23.625,0-45.114,8.893-61.506,23.433c-9.327-11.67-14.975-26.394-14.975-42.46
		c0-37.673,30.657-68.33,68.338-68.33c26.411,0,49.201,15.149,60.58,37.113C186.88,176.701,170.83,194.194,160.269,214.949z"/>
	<polygon points="264.911,400.376 280.025,400.376 283.706,400.376 300.874,400.376 246.084,322.12 232.094,331.922 
		268.064,383.292 252.941,383.292 232.094,383.292 242.954,398.809 252.455,412.381 303.518,485.798 317.517,476.006 
		266.455,402.579 	"/>
</g>
</svg>
