<?xml version="1.0" encoding="utf-8"?>
<!-- Generator: Adobe Illustrator 16.0.0, SVG Export Plug-In . SVG Version: 6.00 Build 0)  -->
<!DOCTYPE svg PUBLIC "-//W3C//DTD SVG 1.1//EN" "http://www.w3.org/Graphics/SVG/1.1/DTD/svg11.dtd">
<svg version="1.1" id="Layer_1" xmlns="http://www.w3.org/2000/svg" xmlns:xlink="http://www.w3.org/1999/xlink" x="0px" y="0px"
	 width="290.119px" height="512px" viewBox="78.492 0 290.119 512" enable-background="new 78.492 0 290.119 512"
	 xml:space="preserve">
<path d="M247.093,129.727c59.37,11.145,104.435,63.375,104.435,125.932c0,70.666-57.485,128.149-128.134,128.149
	c-58.002,0-107.044-38.355-122.719-91.636c11.946,3.937,24.492,5.963,37.297,5.963c65.944,0,119.591-53.656,119.591-119.6
	C257.562,161.585,253.941,144.976,247.093,129.727 M223.393,110.448c-2.887,0-5.706,0.267-8.542,0.434
	c15.899,18.052,25.627,41.693,25.627,67.654c0,56.609-45.891,102.516-102.507,102.516c-22.198,0-42.694-7.133-59.479-19.129
	c3.304,77.281,66.812,138.97,144.901,138.97c80.208,0,145.218-65.024,145.218-145.233
	C368.61,175.45,303.602,110.448,223.393,110.448L223.393,110.448z"/>
</svg>
