<?xml version="1.0" encoding="utf-8"?>
<!-- Generator: Adobe Illustrator 16.0.0, SVG Export Plug-In . SVG Version: 6.00 Build 0)  -->
<!DOCTYPE svg PUBLIC "-//W3C//DTD SVG 1.1//EN" "http://www.w3.org/Graphics/SVG/1.1/DTD/svg11.dtd">
<svg version="1.1" id="Layer_1" xmlns="http://www.w3.org/2000/svg" xmlns:xlink="http://www.w3.org/1999/xlink" x="0px" y="0px"
	 width="452.738px" height="512px" viewBox="-2.819 0 452.738 512" enable-background="new -2.819 0 452.738 512"
	 xml:space="preserve">
<g>
	<polygon points="274.979,379.396 216.186,295.425 202.195,305.227 260.989,389.197 270.492,402.771 300.182,445.172 
		314.179,435.38 284.489,392.968 	"/>
	<polygon points="343.334,379.38 284.523,295.425 270.533,305.234 329.353,389.189 337.938,401.451 368.553,445.146 
		382.551,435.354 351.936,391.648 	"/>
	<polygon points="206.642,379.396 147.847,295.425 133.858,305.234 192.652,389.197 202.771,403.654 231.852,445.182 
		245.841,435.38 216.769,393.852 	"/>
	<path d="M369.862,177.46c-13.631-63.601-70.105-111.3-137.761-111.3c-54.866,0-102.308,31.416-125.589,77.181
		c-2.27-0.149-4.529-0.342-6.832-0.342c-56.609,0-102.499,45.889-102.499,102.507c0,56.442,45.614,102.207,101.981,102.49v0.025
		h17.61v-17.086h-13.706l-3.821-0.022c-46.857-0.233-84.98-38.55-84.98-85.407c0-47.099,38.314-85.422,85.414-85.422
		c1.493,0,2.961,0.117,4.438,0.217l1.268,0.083l11.245,0.751l5.106-10.043c21.289-41.853,63.583-67.846,110.366-67.846
		c58.002,0,108.912,41.125,121.059,97.793l2.712,12.663l12.931,0.809c35.903,2.236,64.033,32.142,64.033,68.087
		c0,37.564-30.458,68.139-67.973,68.338c-0.424-0.022-0.793-0.041-1.167-0.059l-8.908,0.059h1.167v17.086h7.374v-0.059
		c0.393,0.008,0.776,0.059,1.169,0.059c47.164,0,85.421-38.239,85.421-85.424C449.92,217.235,414.517,180.238,369.862,177.46z"/>
</g>
</svg>
