<?xml version="1.0" encoding="utf-8"?>
<!-- Generator: Adobe Illustrator 16.0.0, SVG Export Plug-In . SVG Version: 6.00 Build 0)  -->
<!DOCTYPE svg PUBLIC "-//W3C//DTD SVG 1.1//EN" "http://www.w3.org/Graphics/SVG/1.1/DTD/svg11.dtd">
<svg version="1.1" id="Layer_1" xmlns="http://www.w3.org/2000/svg" xmlns:xlink="http://www.w3.org/1999/xlink" x="0px" y="0px"
	 width="427.114px" height="512px" viewBox="9.996 0 427.114 512" enable-background="new 9.996 0 427.114 512"
	 xml:space="preserve">
<g>
	<path d="M364.598,220.605c-12.337-57.594-63.49-100.796-124.763-100.796c-15.366,0-30.09,2.736-43.721,7.724
		c-8.108-43.637-46.165-76.713-92.154-76.713c-3.529,0-6.999,0.234-10.436,0.609c6.356,9.501,10.069,20.913,10.069,33.193
		c0,33.018-26.769,59.795-59.795,59.795c-12.288,0-23.691-3.712-33.193-10.069c-0.375,3.429-0.609,6.907-0.609,10.436
		c0,31.716,15.758,59.688,39.816,76.705c-14.123,16.292-22.731,37.487-22.731,60.745c0,51.113,41.31,92.563,92.363,92.814v0.025
		h10.144V357.99h-6.156l-3.904-0.025c-41.552-0.199-75.362-34.176-75.362-75.729c0-41.769,33.977-75.753,75.746-75.753
		c1.285,0,2.552,0.1,3.82,0.191l1.269,0.084l11.228,0.726l5.097-10.036c19.003-37.347,56.751-60.555,98.511-60.555
		c51.778,0,97.228,36.714,108.054,87.291l2.721,12.671l12.931,0.801c31.675,1.969,56.483,28.354,56.483,60.055
		c0,33.126-26.854,60.096-59.938,60.279c-0.358-0.025-0.675-0.041-1.001-0.041l-15.941,0.041v17.085h15.541v-0.052
		c0.359,0.009,0.7,0.052,1.061,0.052c42.719,0,77.364-34.63,77.364-77.364C437.107,256.625,405.041,223.124,364.598,220.605z
		 M126.1,189.706c-2.061-0.133-4.104-0.309-6.189-0.309c-21.673,0-41.561,7.492-57.36,19.938
		c-17.185-11.054-29.781-28.646-33.96-49.343c4.971,1.001,10.061,1.51,15.208,1.51c42.394,0,76.88-34.486,76.88-76.88
		c0-5.147-0.509-10.235-1.51-15.208c31.892,6.432,56.626,32.667,60.939,65.26C156.932,147.011,138.012,166.273,126.1,189.706z"/>
	<polygon points="189.7,366.699 189.7,344.232 208.26,354.68 214.116,344.251 193.02,332.38 214.116,320.509 208.26,310.082 
		189.7,320.525 189.7,298.361 172.615,298.361 172.615,320.902 153.387,310.082 147.531,320.509 168.627,332.38 147.531,344.251 
		153.387,354.68 172.615,343.857 172.615,366.699 	"/>
	<polygon points="233.795,403.896 215.234,414.34 215.234,392.176 198.15,392.176 198.15,414.717 178.921,403.896 173.065,414.324 
		194.163,426.195 173.065,438.066 178.921,448.493 198.15,437.674 198.15,460.514 215.234,460.514 215.234,438.049 233.795,448.493 
		239.652,438.066 218.554,426.195 239.652,414.324 	"/>
	<polygon points="310.809,344.251 292.249,354.695 292.249,332.531 275.164,332.531 275.164,355.07 255.936,344.251 250.079,354.68 
		271.176,366.549 250.079,378.42 255.936,388.848 275.164,378.027 275.164,400.869 292.249,400.869 292.249,378.404 
		310.809,388.848 316.665,378.42 295.566,366.549 316.665,354.68 	"/>
</g>
</svg>
