<?xml version="1.0" encoding="utf-8"?>
<!-- Generator: Adobe Illustrator 16.0.0, SVG Export Plug-In . SVG Version: 6.00 Build 0)  -->
<!DOCTYPE svg PUBLIC "-//W3C//DTD SVG 1.1//EN" "http://www.w3.org/Graphics/SVG/1.1/DTD/svg11.dtd">
<svg version="1.1" id="Layer_1" xmlns="http://www.w3.org/2000/svg" xmlns:xlink="http://www.w3.org/1999/xlink" x="0px" y="0px"
	 width="452.738px" height="512px" viewBox="-2.819 0 452.738 512" enable-background="new -2.819 0 452.738 512"
	 xml:space="preserve">
<g>
	<g>
		<path d="M369.862,196.046c-13.631-63.599-70.105-111.299-137.761-111.299c-54.866,0-102.308,31.416-125.589,77.18
			c-2.27-0.151-4.529-0.342-6.832-0.342c-56.609,0-102.499,45.89-102.499,102.508c0,56.441,45.614,102.205,101.981,102.489v0.025
			h17.61v-17.084h-13.706l-3.821-0.025c-46.857-0.232-84.98-38.548-84.98-85.405c0-47.1,38.314-85.423,85.414-85.423
			c1.493,0,2.961,0.117,4.438,0.217l1.268,0.083l11.245,0.751l5.106-10.044c21.289-41.852,63.583-67.846,110.366-67.846
			c58.002,0,108.912,41.127,121.059,97.794l2.712,12.663l12.931,0.81c35.903,2.235,64.033,32.142,64.033,68.087
			c0,37.562-30.458,68.139-67.973,68.338c-0.424-0.024-0.793-0.041-1.167-0.058l-17.451,0.058h-24.46v17.084h41.544v-0.059
			c0.393,0.008,0.776,0.059,1.169,0.059c47.164,0,85.421-38.239,85.421-85.422C449.92,235.82,414.517,198.824,369.862,196.046z"/>
	</g>
	<g>
		<path d="M155.213,298.921c-7.074,0-12.813,5.739-12.813,12.812c0,7.074,5.739,12.812,12.813,12.812
			c7.074,0,12.813-5.738,12.813-12.812C168.026,304.66,162.288,298.921,155.213,298.921z"/>
	</g>
	<g>
		<path d="M189.382,349.523c-7.074,0-12.813,5.738-12.813,12.812c0,7.073,5.74,12.812,12.813,12.812
			c7.074,0,12.813-5.739,12.813-12.812C202.195,355.264,196.457,349.523,189.382,349.523z"/>
	</g>
	<g>
		<path d="M257.721,349.523c-7.074,0-12.812,5.738-12.812,12.812c0,7.073,5.738,12.812,12.812,12.812
			c7.073,0,12.812-5.739,12.812-12.812C270.533,355.264,264.794,349.523,257.721,349.523z"/>
	</g>
	<g>
		<path d="M223.551,298.921c-7.074,0-12.813,5.739-12.813,12.812c0,7.074,5.74,12.812,12.813,12.812
			c7.075,0,12.814-5.738,12.814-12.812C236.365,304.66,230.626,298.921,223.551,298.921z"/>
	</g>
	<g>
		<path d="M291.889,298.921c-7.074,0-12.812,5.739-12.812,12.812c0,7.074,5.737,12.812,12.812,12.812
			c7.075,0,12.814-5.738,12.814-12.812C304.703,304.66,298.964,298.921,291.889,298.921z"/>
	</g>
	<g>
		<path d="M155.213,400.961c-7.074,0-12.813,5.739-12.813,12.813c0,7.071,5.739,12.812,12.813,12.812
			c7.074,0,12.813-5.739,12.813-12.812C168.026,406.7,162.288,400.961,155.213,400.961z"/>
	</g>
	<g>
		<path d="M223.551,400.961c-7.074,0-12.813,5.739-12.813,12.813c0,7.071,5.74,12.812,12.813,12.812
			c7.075,0,12.814-5.739,12.814-12.812C236.365,406.7,230.626,400.961,223.551,400.961z"/>
	</g>
	<g>
		<path d="M291.889,400.961c-7.074,0-12.812,5.739-12.812,12.813c0,7.071,5.737,12.812,12.812,12.812
			c7.075,0,12.814-5.739,12.814-12.812C304.703,406.7,298.964,400.961,291.889,400.961z"/>
	</g>
</g>
</svg>
