<?xml version="1.0" encoding="utf-8"?>
<!-- Generator: Adobe Illustrator 16.0.0, SVG Export Plug-In . SVG Version: 6.00 Build 0)  -->
<!DOCTYPE svg PUBLIC "-//W3C//DTD SVG 1.1//EN" "http://www.w3.org/Graphics/SVG/1.1/DTD/svg11.dtd">
<svg version="1.1" id="Layer_1" xmlns="http://www.w3.org/2000/svg" xmlns:xlink="http://www.w3.org/1999/xlink" x="0px" y="0px"
	 width="444.152px" height="512px" viewBox="1.474 0 444.152 512" enable-background="new 1.474 0 444.152 512"
	 xml:space="preserve">
<g>
	<rect x="214.972" y="91.762" width="17.08" height="85.422"/>
	
		<rect x="340.562" y="143.737" transform="matrix(-0.7071 -0.7071 0.7071 -0.7071 462.8724 568.1295)" width="17.081" height="88.923"/>
	
		<rect x="53.445" y="179.707" transform="matrix(-0.7071 -0.7071 0.7071 -0.7071 34.021 390.5885)" width="88.917" height="17.083"/>
	<polygon points="232.052,386.87 232.052,296.775 214.972,296.775 214.972,386.87 178.634,350.532 166.554,362.611 223.514,419.571 
		280.471,362.611 268.391,350.532 	"/>
	<path d="M334.625,313.854c0-0.017,0-0.033,0-0.052c0-61.331-49.718-111.041-111.053-111.041
		c-61.331,0-111.049,49.709-111.049,111.041c0,0.019,0,0.035,0,0.052H1.474v17.084h187.929v-17.084h-59.795c0-0.017,0-0.033,0-0.051
		c0-51.804,42.152-93.957,93.965-93.957c51.809,0,93.969,42.153,93.969,93.957c0,0.018,0,0.034,0,0.051h-59.796v17.084h187.88
		v-17.084H334.625L334.625,313.854z"/>
</g>
</svg>
