<?xml version="1.0" encoding="utf-8"?>
<!-- Generator: Adobe Illustrator 16.0.0, SVG Export Plug-In . SVG Version: 6.00 Build 0)  -->
<!DOCTYPE svg PUBLIC "-//W3C//DTD SVG 1.1//EN" "http://www.w3.org/Graphics/SVG/1.1/DTD/svg11.dtd">
<svg version="1.1" id="Layer_1" xmlns="http://www.w3.org/2000/svg" xmlns:xlink="http://www.w3.org/1999/xlink" x="0px" y="0px"
	 width="426.678px" height="512px" viewBox="10.212 0 426.678 512" enable-background="new 10.212 0 426.678 512"
	 xml:space="preserve">
<path d="M232.094,76.488V59.195H215.01v17.293c-111.134,4.38-200.418,93.664-204.798,204.805H24.51
	c9.735-10.436,23.474-17.084,38.874-17.084c19.303,0,36.163,10.277,45.539,25.626h15.7c9.376-15.349,26.235-25.626,45.539-25.626
	c18.828,0,35.337,9.77,44.847,24.484v129.274c0,18.879,15.3,34.17,34.169,34.17s34.168-15.291,34.168-34.17h-17.084
	c0,9.418-7.666,17.086-17.084,17.086c-9.419,0-17.085-7.668-17.085-17.086V288.693c9.511-14.717,26.019-24.484,44.849-24.484
	c19.303,0,36.16,10.277,45.537,25.626h15.7c9.375-15.349,26.235-25.626,45.538-25.626c15.399,0,29.141,6.648,38.875,17.084h14.298
	C432.512,170.152,343.226,80.868,232.094,76.488z M383.718,247.125c-21.321,0-40.458,9.518-53.39,24.518
	c-12.929-15-32.066-24.518-53.387-24.518c-21.323,0-40.461,9.518-53.391,24.518c-12.93-15-32.066-24.518-53.389-24.518
	c-21.322,0-40.458,9.518-53.389,24.518c-12.931-15-32.075-24.518-53.389-24.518c-11.979,0-23.333,2.994-33.293,8.325
	c16.309-91.988,96.86-162.086,193.46-162.086c96.602,0,177.152,70.099,193.459,162.086
	C407.051,250.119,395.697,247.125,383.718,247.125z"/>
</svg>
