<?xml version="1.0" encoding="utf-8"?>
<!-- Generator: Adobe Illustrator 16.0.0, SVG Export Plug-In . SVG Version: 6.00 Build 0)  -->
<!DOCTYPE svg PUBLIC "-//W3C//DTD SVG 1.1//EN" "http://www.w3.org/Graphics/SVG/1.1/DTD/svg11.dtd">
<svg version="1.1" id="Layer_1" xmlns="http://www.w3.org/2000/svg" xmlns:xlink="http://www.w3.org/1999/xlink" x="0px" y="0px"
	 width="478.31px" height="512px" viewBox="-15.602 0 478.31 512" enable-background="new -15.602 0 478.31 512"
	 xml:space="preserve">
<g>
	<rect x="197.895" y="33.568" width="17.085" height="85.422"/>
	<rect x="-15.602" y="247.125" width="85.364" height="17.084"/>
	
		<rect x="323.45" y="85.562" transform="matrix(-0.7071 -0.7071 0.7071 -0.7071 474.8085 456.7063)" width="17.082" height="88.91"/>
	
		<rect x="36.37" y="121.514" transform="matrix(-0.7071 -0.7071 0.7071 -0.7071 46.0197 279.1727)" width="88.916" height="17.083"/>
	<path d="M240.611,375.26H35.593v17.083h205.019c18.838,0,34.168,15.323,34.168,34.17c0,18.845-15.33,34.168-34.168,34.168v17.084
		c28.312,0,51.254-22.939,51.254-51.252C291.864,398.207,268.924,375.26,240.611,375.26z"/>
	<path d="M343.317,341.089h-0.2v17.084h46.98v-0.432c21.558-2.171,38.441-20.148,38.441-42.278c0-23.59-19.12-42.712-42.711-42.712
		v17.084c14.131,0,25.626,11.497,25.626,25.628c0,14.132-11.495,25.626-25.626,25.626c-0.367,0-0.718-0.092-1.084-0.106h-41.527
		C343.234,341.021,343.284,341.057,343.317,341.089z"/>
	<path d="M419.998,375.26H308.949v17.083h77.062c-0.033,0.033-0.066,0.066-0.084,0.109h32.984c0.367-0.019,0.717-0.109,1.085-0.109
		c14.132,0,25.627,11.494,25.627,25.626c0,14.131-11.495,25.627-25.627,25.627v17.085c23.591,0,42.711-19.118,42.711-42.712
		C462.709,394.378,443.589,375.26,419.998,375.26z"/>
	<path d="M135.614,341.089H35.593v17.084H138.2h7.024h129.555c28.312,0,51.254-22.948,51.254-51.251
		c0-28.314-22.94-51.255-51.254-51.255v17.084c18.837,0,34.171,15.325,34.171,34.171c0,18.844-15.334,34.167-34.17,34.167H167.672
		c-32.476-14.815-55.141-47.517-55.141-85.48c0-51.805,42.152-93.957,93.965-93.957c45.992,0,84.3,33.235,92.342,76.93h17.269
		c-8.208-53.222-54.089-94.014-109.609-94.014c-61.331,0-111.049,49.71-111.049,111.041
		C95.447,289.995,111.08,320.717,135.614,341.089z"/>
</g>
</svg>
