<?xml version="1.0" encoding="utf-8"?>
<!-- Generator: Adobe Illustrator 16.0.0, SVG Export Plug-In . SVG Version: 6.00 Build 0)  -->
<!DOCTYPE svg PUBLIC "-//W3C//DTD SVG 1.1//EN" "http://www.w3.org/Graphics/SVG/1.1/DTD/svg11.dtd">
<svg version="1.1" id="Layer_1" xmlns="http://www.w3.org/2000/svg" xmlns:xlink="http://www.w3.org/1999/xlink" x="0px" y="0px"
	 width="410.028px" height="512px" viewBox="18.537 0 410.028 512" enable-background="new 18.537 0 410.028 512"
	 xml:space="preserve">
<g>
	<path d="M223.551,272.751H52.706c-9.417,0-17.084-7.665-17.084-17.084s7.667-17.085,17.084-17.085h29.431h4.738v-17.084H52.706
		c-18.869,0-34.169,15.299-34.169,34.169s15.3,34.168,34.169,34.168h170.845c18.836,0,34.168,15.326,34.168,34.17
		c0,18.845-15.332,34.168-34.168,34.168v17.087c28.312,0,51.252-22.941,51.252-51.255
		C274.805,295.701,251.863,272.751,223.551,272.751z"/>
	<path d="M240.637,136.075v17.084c18.836,0,34.168,15.325,34.168,34.169c0,18.844-15.332,34.169-34.168,34.169H104.06v17.084
		h136.577c28.312,0,51.252-22.948,51.252-51.253C291.889,159.016,268.949,136.075,240.637,136.075z"/>
	<path d="M291.889,238.582v17.085h46.982v-0.435c21.557-2.169,38.441-20.146,38.441-42.277c0-23.592-19.121-42.712-42.714-42.712
		v17.085c14.133,0,25.627,11.495,25.627,25.627c0,14.131-11.494,25.626-25.627,25.626c-0.364,0-0.709-0.092-1.073-0.108H291.99
		c0.023,0.042,0.074,0.075,0.1,0.108L291.889,238.582L291.889,238.582z"/>
	<path d="M385.854,272.751h-93.965v17.084h59.987c-0.033,0.035-0.065,0.067-0.091,0.108h32.993c0.365-0.016,0.708-0.108,1.075-0.108
		c14.132,0,25.627,11.497,25.627,25.628c0,14.133-11.495,25.626-25.627,25.626v17.084c23.591,0,42.712-19.118,42.712-42.71
		C428.565,291.873,409.444,272.751,385.854,272.751z"/>
</g>
</svg>
